<?xml version="1.0"?>
<!-- Generated by SVGo -->
<svg width="625" height="625"
     xmlns="http://www.w3.org/2000/svg"
     xmlns:xlink="http://www.w3.org/1999/xlink">
<rect x="0" y="0" width="625" height="625" style="fill:#ffffff;"/>
<rect x="0" y="0" width="25" height="25" style="fill:#000000;"/>
<rect x="25" y="0" width="25" height="25" style="fill:#000000;"/>
<rect x="50" y="0" width="25" height="25" style="fill:#000000;"/>
<rect x="75" y="0" width="25" height="25" style="fill:#000000;"/>
<rect x="125" y="0" width="25" height="25" style="fill:#000000;"/>
<rect x="200" y="0" width="25" height="25" style="fill:#000000;"/>
<rect x="225" y="0" width="25" height="25" style="fill:#000000;"/>
<rect x="250" y="0" width="25" height="25" style="fill:#000000;"/>
<rect x="300" y="0" width="25" height="25" style="fill:#000000;"/>
<rect x="350" y="0" width="25" height="25" style="fill:#000000;"/>
<rect x="425" y="0" width="25" height="25" style="fill:#000000;"/>
<rect x="450" y="0" width="25" height="25" style="fill:#000000;"/>
<rect x="475" y="0" width="25" height="25" style="fill:#000000;"/>
<rect x="500" y="0" width="25" height="25" style="fill:#000000;"/>
<rect x="550" y="0" width="25" height="25" style="fill:#000000;"/>
<rect x="0" y="25" width="25" height="25" style="fill:#000000;"/>
<rect x="75" y="25" width="25" height="25" style="fill:#000000;"/>
<rect x="100" y="25" width="25" height="25" style="fill:#000000;"/>
<rect x="125" y="25" width="25" height="25" style="fill:#000000;"/>
<rect x="175" y="25" width="25" height="25" style="fill:#000000;"/>
<rect x="200" y="25" width="25" height="25" style="fill:#000000;"/>
<rect x="250" y="25" width="25" height="25" style="fill:#000000;"/>
<rect x="275" y="25" width="25" height="25" style="fill:#000000;"/>
<rect x="300" y="25" width="25" height="25" style="fill:#000000;"/>
<rect x="325" y="25" width="25" height="25" style="fill:#000000;"/>
<rect x="350" y="25" width="25" height="25" style="fill:#000000;"/>
<rect x="400" y="25" width="25" height="25" style="fill:#000000;"/>
<rect x="425" y="25" width="25" height="25" style="fill:#000000;"/>
<rect x="500" y="25" width="25" height="25" style="fill:#000000;"/>
<rect x="525" y="25" width="25" height="25" style="fill:#000000;"/>
<rect x="550" y="25" width="25" height="25" style="fill:#000000;"/>
<rect x="0" y="50" width="25" height="25" style="fill:#000000;"/>
<rect x="50" y="50" width="25" height="25" style="fill:#000000;"/>
<rect x="75" y="50" width="25" height="25" style="fill:#000000;"/>
<rect x="125" y="50" width="25" height="25" style="fill:#000000;"/>
<rect x="150" y="50" width="25" height="25" style="fill:#000000;"/>
<rect x="175" y="50" width="25" height="25" style="fill:#000000;"/>
<rect x="200" y="50" width="25" height="25" style="fill:#000000;"/>
<rect x="225" y="50" width="25" height="25" style="fill:#000000;"/>
<rect x="250" y="50" width="25" height="25" style="fill:#000000;"/>
<rect x="350" y="50" width="25" height="25" style="fill:#000000;"/>
<rect x="375" y="50" width="25" height="25" style="fill:#000000;"/>
<rect x="400" y="50" width="25" height="25" style="fill:#000000;"/>
<rect x="425" y="50" width="25" height="25" style="fill:#000000;"/>
<rect x="475" y="50" width="25" height="25" style="fill:#000000;"/>
<rect x="500" y="50" width="25" height="25" style="fill:#000000;"/>
<rect x="550" y="50" width="25" height="25" style="fill:#000000;"/>
<rect x="0" y="75" width="25" height="25" style="fill:#000000;"/>
<rect x="25" y="75" width="25" height="25" style="fill:#000000;"/>
<rect x="50" y="75" width="25" height="25" style="fill:#000000;"/>
<rect x="75" y="75" width="25" height="25" style="fill:#000000;"/>
<rect x="100" y="75" width="25" height="25" style="fill:#000000;"/>
<rect x="125" y="75" width="25" height="25" style="fill:#000000;"/>
<rect x="250" y="75" width="25" height="25" style="fill:#000000;"/>
<rect x="325" y="75" width="25" height="25" style="fill:#000000;"/>
<rect x="350" y="75" width="25" height="25" style="fill:#000000;"/>
<rect x="425" y="75" width="25" height="25" style="fill:#000000;"/>
<rect x="450" y="75" width="25" height="25" style="fill:#000000;"/>
<rect x="475" y="75" width="25" height="25" style="fill:#000000;"/>
<rect x="500" y="75" width="25" height="25" style="fill:#000000;"/>
<rect x="525" y="75" width="25" height="25" style="fill:#000000;"/>
<rect x="550" y="75" width="25" height="25" style="fill:#000000;"/>
<rect x="0" y="100" width="25" height="25" style="fill:#000000;"/>
<rect x="125" y="100" width="25" height="25" style="fill:#000000;"/>
<rect x="225" y="100" width="25" height="25" style="fill:#000000;"/>
<rect x="250" y="100" width="25" height="25" style="fill:#000000;"/>
<rect x="300" y="100" width="25" height="25" style="fill:#000000;"/>
<rect x="325" y="100" width="25" height="25" style="fill:#000000;"/>
<rect x="350" y="100" width="25" height="25" style="fill:#000000;"/>
<rect x="400" y="100" width="25" height="25" style="fill:#000000;"/>
<rect x="425" y="100" width="25" height="25" style="fill:#000000;"/>
<rect x="550" y="100" width="25" height="25" style="fill:#000000;"/>
<rect x="0" y="125" width="25" height="25" style="fill:#000000;"/>
<rect x="100" y="125" width="25" height="25" style="fill:#000000;"/>
<rect x="125" y="125" width="25" height="25" style="fill:#000000;"/>
<rect x="200" y="125" width="25" height="25" style="fill:#000000;"/>
<rect x="225" y="125" width="25" height="25" style="fill:#000000;"/>
<rect x="250" y="125" width="25" height="25" style="fill:#000000;"/>
<rect x="275" y="125" width="25" height="25" style="fill:#000000;"/>
<rect x="300" y="125" width="25" height="25" style="fill:#000000;"/>
<rect x="350" y="125" width="25" height="25" style="fill:#000000;"/>
<rect x="375" y="125" width="25" height="25" style="fill:#000000;"/>
<rect x="400" y="125" width="25" height="25" style="fill:#000000;"/>
<rect x="425" y="125" width="25" height="25" style="fill:#000000;"/>
<rect x="525" y="125" width="25" height="25" style="fill:#000000;"/>
<rect x="550" y="125" width="25" height="25" style="fill:#000000;"/>
<rect x="0" y="150" width="25" height="25" style="fill:#000000;"/>
<rect x="75" y="150" width="25" height="25" style="fill:#000000;"/>
<rect x="100" y="150" width="25" height="25" style="fill:#000000;"/>
<rect x="125" y="150" width="25" height="25" style="fill:#000000;"/>
<rect x="175" y="150" width="25" height="25" style="fill:#000000;"/>
<rect x="200" y="150" width="25" height="25" style="fill:#000000;"/>
<rect x="300" y="150" width="25" height="25" style="fill:#000000;"/>
<rect x="325" y="150" width="25" height="25" style="fill:#000000;"/>
<rect x="350" y="150" width="25" height="25" style="fill:#000000;"/>
<rect x="425" y="150" width="25" height="25" style="fill:#000000;"/>
<rect x="500" y="150" width="25" height="25" style="fill:#000000;"/>
<rect x="525" y="150" width="25" height="25" style="fill:#000000;"/>
<rect x="550" y="150" width="25" height="25" style="fill:#000000;"/>
<rect x="0" y="175" width="25" height="25" style="fill:#000000;"/>
<rect x="50" y="175" width="25" height="25" style="fill:#000000;"/>
<rect x="75" y="175" width="25" height="25" style="fill:#000000;"/>
<rect x="125" y="175" width="25" height="25" style="fill:#000000;"/>
<rect x="150" y="175" width="25" height="25" style="fill:#000000;"/>
<rect x="175" y="175" width="25" height="25" style="fill:#000000;"/>
<rect x="200" y="175" width="25" height="25" style="fill:#000000;"/>
<rect x="275" y="175" width="25" height="25" style="fill:#000000;"/>
<rect x="300" y="175" width="25" height="25" style="fill:#000000;"/>
<rect x="350" y="175" width="25" height="25" style="fill:#000000;"/>
<rect x="400" y="175" width="25" height="25" style="fill:#000000;"/>
<rect x="425" y="175" width="25" height="25" style="fill:#000000;"/>
<rect x="475" y="175" width="25" height="25" style="fill:#000000;"/>
<rect x="500" y="175" width="25" height="25" style="fill:#000000;"/>
<rect x="550" y="175" width="25" height="25" style="fill:#000000;"/>
<rect x="0" y="200" width="25" height="25" style="fill:#000000;"/>
<rect x="25" y="200" width="25" height="25" style="fill:#000000;"/>
<rect x="50" y="200" width="25" height="25" style="fill:#000000;"/>
<rect x="75" y="200" width="25" height="25" style="fill:#000000;"/>
<rect x="100" y="200" width="25" height="25" style="fill:#000000;"/>
<rect x="125" y="200" width="25" height="25" style="fill:#000000;"/>
<rect x="200" y="200" width="25" height="25" style="fill:#000000;"/>
<rect x="250" y="200" width="25" height="25" style="fill:#000000;"/>
<rect x="275" y="200" width="25" height="25" style="fill:#000000;"/>
<rect x="300" y="200" width="25" height="25" style="fill:#000000;"/>
<rect x="325" y="200" width="25" height="25" style="fill:#000000;"/>
<rect x="350" y="200" width="25" height="25" style="fill:#000000;"/>
<rect x="375" y="200" width="25" height="25" style="fill:#000000;"/>
<rect x="400" y="200" width="25" height="25" style="fill:#000000;"/>
<rect x="425" y="200" width="25" height="25" style="fill:#000000;"/>
<rect x="450" y="200" width="25" height="25" style="fill:#000000;"/>
<rect x="475" y="200" width="25" height="25" style="fill:#000000;"/>
<rect x="500" y="200" width="25" height="25" style="fill:#000000;"/>
<rect x="525" y="200" width="25" height="25" style="fill:#000000;"/>
<rect x="550" y="200" width="25" height="25" style="fill:#000000;"/>
<rect x="0" y="225" width="25" height="25" style="fill:#000000;"/>
<rect x="125" y="225" width="25" height="25" style="fill:#000000;"/>
<rect x="175" y="225" width="25" height="25" style="fill:#000000;"/>
<rect x="200" y="225" width="25" height="25" style="fill:#000000;"/>
<rect x="225" y="225" width="25" height="25" style="fill:#000000;"/>
<rect x="250" y="225" width="25" height="25" style="fill:#000000;"/>
<rect x="550" y="225" width="25" height="25" style="fill:#000000;"/>
<rect x="0" y="250" width="25" height="25" style="fill:#000000;"/>
<rect x="100" y="250" width="25" height="25" style="fill:#000000;"/>
<rect x="125" y="250" width="25" height="25" style="fill:#000000;"/>
<rect x="150" y="250" width="25" height="25" style="fill:#000000;"/>
<rect x="175" y="250" width="25" height="25" style="fill:#000000;"/>
<rect x="250" y="250" width="25" height="25" style="fill:#000000;"/>
<rect x="525" y="250" width="25" height="25" style="fill:#000000;"/>
<rect x="550" y="250" width="25" height="25" style="fill:#000000;"/>
<rect x="0" y="275" width="25" height="25" style="fill:#000000;"/>
<rect x="75" y="275" width="25" height="25" style="fill:#000000;"/>
<rect x="100" y="275" width="25" height="25" style="fill:#000000;"/>
<rect x="175" y="275" width="25" height="25" style="fill:#000000;"/>
<rect x="225" y="275" width="25" height="25" style="fill:#000000;"/>
<rect x="250" y="275" width="25" height="25" style="fill:#000000;"/>
<rect x="500" y="275" width="25" height="25" style="fill:#000000;"/>
<rect x="525" y="275" width="25" height="25" style="fill:#000000;"/>
<rect x="550" y="275" width="25" height="25" style="fill:#000000;"/>
<rect x="0" y="300" width="25" height="25" style="fill:#000000;"/>
<rect x="50" y="300" width="25" height="25" style="fill:#000000;"/>
<rect x="75" y="300" width="25" height="25" style="fill:#000000;"/>
<rect x="100" y="300" width="25" height="25" style="fill:#000000;"/>
<rect x="150" y="300" width="25" height="25" style="fill:#000000;"/>
<rect x="175" y="300" width="25" height="25" style="fill:#000000;"/>
<rect x="200" y="300" width="25" height="25" style="fill:#000000;"/>
<rect x="225" y="300" width="25" height="25" style="fill:#000000;"/>
<rect x="250" y="300" width="25" height="25" style="fill:#000000;"/>
<rect x="475" y="300" width="25" height="25" style="fill:#000000;"/>
<rect x="500" y="300" width="25" height="25" style="fill:#000000;"/>
<rect x="550" y="300" width="25" height="25" style="fill:#000000;"/>
<rect x="0" y="325" width="25" height="25" style="fill:#000000;"/>
<rect x="25" y="325" width="25" height="25" style="fill:#000000;"/>
<rect x="50" y="325" width="25" height="25" style="fill:#000000;"/>
<rect x="100" y="325" width="25" height="25" style="fill:#000000;"/>
<rect x="125" y="325" width="25" height="25" style="fill:#000000;"/>
<rect x="150" y="325" width="25" height="25" style="fill:#000000;"/>
<rect x="250" y="325" width="25" height="25" style="fill:#000000;"/>
<rect x="450" y="325" width="25" height="25" style="fill:#000000;"/>
<rect x="475" y="325" width="25" height="25" style="fill:#000000;"/>
<rect x="500" y="325" width="25" height="25" style="fill:#000000;"/>
<rect x="525" y="325" width="25" height="25" style="fill:#000000;"/>
<rect x="550" y="325" width="25" height="25" style="fill:#000000;"/>
<rect x="0" y="350" width="25" height="25" style="fill:#000000;"/>
<rect x="50" y="350" width="25" height="25" style="fill:#000000;"/>
<rect x="75" y="350" width="25" height="25" style="fill:#000000;"/>
<rect x="100" y="350" width="25" height="25" style="fill:#000000;"/>
<rect x="150" y="350" width="25" height="25" style="fill:#000000;"/>
<rect x="225" y="350" width="25" height="25" style="fill:#000000;"/>
<rect x="250" y="350" width="25" height="25" style="fill:#000000;"/>
<rect x="425" y="350" width="25" height="25" style="fill:#000000;"/>
<rect x="450" y="350" width="25" height="25" style="fill:#000000;"/>
<rect x="550" y="350" width="25" height="25" style="fill:#000000;"/>
<rect x="0" y="375" width="25" height="25" style="fill:#000000;"/>
<rect x="25" y="375" width="25" height="25" style="fill:#000000;"/>
<rect x="50" y="375" width="25" height="25" style="fill:#000000;"/>
<rect x="100" y="375" width="25" height="25" style="fill:#000000;"/>
<rect x="125" y="375" width="25" height="25" style="fill:#000000;"/>
<rect x="150" y="375" width="25" height="25" style="fill:#000000;"/>
<rect x="200" y="375" width="25" height="25" style="fill:#000000;"/>
<rect x="225" y="375" width="25" height="25" style="fill:#000000;"/>
<rect x="250" y="375" width="25" height="25" style="fill:#000000;"/>
<rect x="400" y="375" width="25" height="25" style="fill:#000000;"/>
<rect x="425" y="375" width="25" height="25" style="fill:#000000;"/>
<rect x="450" y="375" width="25" height="25" style="fill:#000000;"/>
<rect x="525" y="375" width="25" height="25" style="fill:#000000;"/>
<rect x="550" y="375" width="25" height="25" style="fill:#000000;"/>
<rect x="0" y="400" width="25" height="25" style="fill:#000000;"/>
<rect x="50" y="400" width="25" height="25" style="fill:#000000;"/>
<rect x="75" y="400" width="25" height="25" style="fill:#000000;"/>
<rect x="100" y="400" width="25" height="25" style="fill:#000000;"/>
<rect x="150" y="400" width="25" height="25" style="fill:#000000;"/>
<rect x="175" y="400" width="25" height="25" style="fill:#000000;"/>
<rect x="200" y="400" width="25" height="25" style="fill:#000000;"/>
<rect x="250" y="400" width="25" height="25" style="fill:#000000;"/>
<rect x="375" y="400" width="25" height="25" style="fill:#000000;"/>
<rect x="400" y="400" width="25" height="25" style="fill:#000000;"/>
<rect x="450" y="400" width="25" height="25" style="fill:#000000;"/>
<rect x="500" y="400" width="25" height="25" style="fill:#000000;"/>
<rect x="525" y="400" width="25" height="25" style="fill:#000000;"/>
<rect x="550" y="400" width="25" height="25" style="fill:#000000;"/>
<rect x="0" y="425" width="25" height="25" style="fill:#000000;"/>
<rect x="25" y="425" width="25" height="25" style="fill:#000000;"/>
<rect x="50" y="425" width="25" height="25" style="fill:#000000;"/>
<rect x="100" y="425" width="25" height="25" style="fill:#000000;"/>
<rect x="125" y="425" width="25" height="25" style="fill:#000000;"/>
<rect x="150" y="425" width="25" height="25" style="fill:#000000;"/>
<rect x="200" y="425" width="25" height="25" style="fill:#000000;"/>
<rect x="225" y="425" width="25" height="25" style="fill:#000000;"/>
<rect x="250" y="425" width="25" height="25" style="fill:#000000;"/>
<rect x="350" y="425" width="25" height="25" style="fill:#000000;"/>
<rect x="375" y="425" width="25" height="25" style="fill:#000000;"/>
<rect x="400" y="425" width="25" height="25" style="fill:#000000;"/>
<rect x="425" y="425" width="25" height="25" style="fill:#000000;"/>
<rect x="450" y="425" width="25" height="25" style="fill:#000000;"/>
<rect x="475" y="425" width="25" height="25" style="fill:#000000;"/>
<rect x="500" y="425" width="25" height="25" style="fill:#000000;"/>
<rect x="550" y="425" width="25" height="25" style="fill:#000000;"/>
<rect x="0" y="450" width="25" height="25" style="fill:#000000;"/>
<rect x="50" y="450" width="25" height="25" style="fill:#000000;"/>
<rect x="75" y="450" width="25" height="25" style="fill:#000000;"/>
<rect x="100" y="450" width="25" height="25" style="fill:#000000;"/>
<rect x="150" y="450" width="25" height="25" style="fill:#000000;"/>
<rect x="175" y="450" width="25" height="25" style="fill:#000000;"/>
<rect x="200" y="450" width="25" height="25" style="fill:#000000;"/>
<rect x="250" y="450" width="25" height="25" style="fill:#000000;"/>
<rect x="325" y="450" width="25" height="25" style="fill:#000000;"/>
<rect x="350" y="450" width="25" height="25" style="fill:#000000;"/>
<rect x="500" y="450" width="25" height="25" style="fill:#000000;"/>
<rect x="525" y="450" width="25" height="25" style="fill:#000000;"/>
<rect x="550" y="450" width="25" height="25" style="fill:#000000;"/>
<rect x="0" y="475" width="25" height="25" style="fill:#000000;"/>
<rect x="25" y="475" width="25" height="25" style="fill:#000000;"/>
<rect x="50" y="475" width="25" height="25" style="fill:#000000;"/>
<rect x="100" y="475" width="25" height="25" style="fill:#000000;"/>
<rect x="125" y="475" width="25" height="25" style="fill:#000000;"/>
<rect x="150" y="475" width="25" height="25" style="fill:#000000;"/>
<rect x="200" y="475" width="25" height="25" style="fill:#000000;"/>
<rect x="225" y="475" width="25" height="25" style="fill:#000000;"/>
<rect x="250" y="475" width="25" height="25" style="fill:#000000;"/>
<rect x="300" y="475" width="25" height="25" style="fill:#000000;"/>
<rect x="325" y="475" width="25" height="25" style="fill:#000000;"/>
<rect x="350" y="475" width="25" height="25" style="fill:#000000;"/>
<rect x="475" y="475" width="25" height="25" style="fill:#000000;"/>
<rect x="500" y="475" width="25" height="25" style="fill:#000000;"/>
<rect x="550" y="475" width="25" height="25" style="fill:#000000;"/>
<rect x="0" y="500" width="25" height="25" style="fill:#000000;"/>
<rect x="50" y="500" width="25" height="25" style="fill:#000000;"/>
<rect x="75" y="500" width="25" height="25" style="fill:#000000;"/>
<rect x="100" y="500" width="25" height="25" style="fill:#000000;"/>
<rect x="150" y="500" width="25" height="25" style="fill:#000000;"/>
<rect x="175" y="500" width="25" height="25" style="fill:#000000;"/>
<rect x="200" y="500" width="25" height="25" style="fill:#000000;"/>
<rect x="250" y="500" width="25" height="25" style="fill:#000000;"/>
<rect x="275" y="500" width="25" height="25" style="fill:#000000;"/>
<rect x="300" y="500" width="25" height="25" style="fill:#000000;"/>
<rect x="350" y="500" width="25" height="25" style="fill:#000000;"/>
<rect x="450" y="500" width="25" height="25" style="fill:#000000;"/>
<rect x="475" y="500" width="25" height="25" style="fill:#000000;"/>
<rect x="500" y="500" width="25" height="25" style="fill:#000000;"/>
<rect x="525" y="500" width="25" height="25" style="fill:#000000;"/>
<rect x="550" y="500" width="25" height="25" style="fill:#000000;"/>
<rect x="0" y="525" width="25" height="25" style="fill:#000000;"/>
<rect x="25" y="525" width="25" height="25" style="fill:#000000;"/>
<rect x="50" y="525" width="25" height="25" style="fill:#000000;"/>
<rect x="100" y="525" width="25" height="25" style="fill:#000000;"/>
<rect x="125" y="525" width="25" height="25" style="fill:#000000;"/>
<rect x="150" y="525" width="25" height="25" style="fill:#000000;"/>
<rect x="200" y="525" width="25" height="25" style="fill:#000000;"/>
<rect x="225" y="525" width="25" height="25" style="fill:#000000;"/>
<rect x="250" y="525" width="25" height="25" style="fill:#000000;"/>
<rect x="300" y="525" width="25" height="25" style="fill:#000000;"/>
<rect x="325" y="525" width="25" height="25" style="fill:#000000;"/>
<rect x="350" y="525" width="25" height="25" style="fill:#000000;"/>
<rect x="425" y="525" width="25" height="25" style="fill:#000000;"/>
<rect x="450" y="525" width="25" height="25" style="fill:#000000;"/>
<rect x="550" y="525" width="25" height="25" style="fill:#000000;"/>
<rect x="0" y="550" width="25" height="25" style="fill:#000000;"/>
<rect x="50" y="550" width="25" height="25" style="fill:#000000;"/>
<rect x="75" y="550" width="25" height="25" style="fill:#000000;"/>
<rect x="100" y="550" width="25" height="25" style="fill:#000000;"/>
<rect x="150" y="550" width="25" height="25" style="fill:#000000;"/>
<rect x="175" y="550" width="25" height="25" style="fill:#000000;"/>
<rect x="200" y="550" width="25" height="25" style="fill:#000000;"/>
<rect x="250" y="550" width="25" height="25" style="fill:#000000;"/>
<rect x="275" y="550" width="25" height="25" style="fill:#000000;"/>
<rect x="300" y="550" width="25" height="25" style="fill:#000000;"/>
<rect x="350" y="550" width="25" height="25" style="fill:#000000;"/>
<rect x="400" y="550" width="25" height="25" style="fill:#000000;"/>
<rect x="425" y="550" width="25" height="25" style="fill:#000000;"/>
<rect x="450" y="550" width="25" height="25" style="fill:#000000;"/>
<rect x="525" y="550" width="25" height="25" style="fill:#000000;"/>
<rect x="550" y="550" width="25" height="25" style="fill:#000000;"/>
<rect x="0" y="575" width="25" height="25" style="fill:#000000;"/>
<rect x="25" y="575" width="25" height="25" style="fill:#000000;"/>
<rect x="50" y="575" width="25" height="25" style="fill:#000000;"/>
<rect x="100" y="575" width="25" height="25" style="fill:#000000;"/>
<rect x="125" y="575" width="25" height="25" style="fill:#000000;"/>
<rect x="150" y="575" width="25" height="25" style="fill:#000000;"/>
<rect x="200" y="575" width="25" height="25" style="fill:#000000;"/>
<rect x="225" y="575" width="25" height="25" style="fill:#000000;"/>
<rect x="250" y="575" width="25" height="25" style="fill:#000000;"/>
<rect x="300" y="575" width="25" height="25" style="fill:#000000;"/>
<rect x="325" y="575" width="25" height="25" style="fill:#000000;"/>
<rect x="350" y="575" width="25" height="25" style="fill:#000000;"/>
<rect x="375" y="575" width="25" height="25" style="fill:#000000;"/>
<rect x="400" y="575" width="25" height="25" style="fill:#000000;"/>
<rect x="450" y="575" width="25" height="25" style="fill:#000000;"/>
<rect x="500" y="575" width="25" height="25" style="fill:#000000;"/>
<rect x="525" y="575" width="25" height="25" style="fill:#000000;"/>
<rect x="550" y="575" width="25" height="25" style="fill:#000000;"/>
<rect x="0" y="600" width="25" height="25" style="fill:#000000;"/>
<rect x="50" y="600" width="25" height="25" style="fill:#000000;"/>
<rect x="75" y="600" width="25" height="25" style="fill:#000000;"/>
<rect x="100" y="600" width="25" height="25" style="fill:#000000;"/>
<rect x="150" y="600" width="25" height="25" style="fill:#000000;"/>
<rect x="175" y="600" width="25" height="25" style="fill:#000000;"/>
<rect x="200" y="600" width="25" height="25" style="fill:#000000;"/>
<rect x="250" y="600" width="25" height="25" style="fill:#000000;"/>
<rect x="275" y="600" width="25" height="25" style="fill:#000000;"/>
<rect x="300" y="600" width="25" height="25" style="fill:#000000;"/>
<rect x="400" y="600" width="25" height="25" style="fill:#000000;"/>
<rect x="425" y="600" width="25" height="25" style="fill:#000000;"/>
<rect x="450" y="600" width="25" height="25" style="fill:#000000;"/>
<rect x="475" y="600" width="25" height="25" style="fill:#000000;"/>
<rect x="500" y="600" width="25" height="25" style="fill:#000000;"/>
<rect x="550" y="600" width="25" height="25" style="fill:#000000;"/>
<rect x="0" y="625" width="25" height="25" style="fill:#000000;"/>
<rect x="25" y="625" width="25" height="25" style="fill:#000000;"/>
<rect x="50" y="625" width="25" height="25" style="fill:#000000;"/>
<rect x="100" y="625" width="25" height="25" style="fill:#000000;"/>
<rect x="125" y="625" width="25" height="25" style="fill:#000000;"/>
<rect x="150" y="625" width="25" height="25" style="fill:#000000;"/>
<rect x="200" y="625" width="25" height="25" style="fill:#000000;"/>
<rect x="225" y="625" width="25" height="25" style="fill:#000000;"/>
<rect x="250" y="625" width="25" height="25" style="fill:#000000;"/>
<rect x="300" y="625" width="25" height="25" style="fill:#000000;"/>
<rect x="375" y="625" width="25" height="25" style="fill:#000000;"/>
<rect x="400" y="625" width="25" height="25" style="fill:#000000;"/>
<rect x="500" y="625" width="25" height="25" style="fill:#000000;"/>
<rect x="525" y="625" width="25" height="25" style="fill:#000000;"/>
<rect x="550" y="625" width="25" height="25" style="fill:#000000;"/>
</svg>
