<?xml version="1.0"?>
<!-- Generated by SVGo -->
<svg
     viewBox="0 0 125 125"
     xmlns="http://www.w3.org/2000/svg"
     xmlns:xlink="http://www.w3.org/1999/xlink">
<rect x="0" y="0" width="125" height="125" style="fill:#ffffff;"/>
<rect x="10" y="0" width="5" height="5" style="fill:#000000;"/>
<rect x="15" y="0" width="5" height="5" style="fill:#000000;"/>
<rect x="20" y="0" width="5" height="5" style="fill:#000000;"/>
<rect x="30" y="0" width="5" height="5" style="fill:#000000;"/>
<rect x="65" y="0" width="5" height="5" style="fill:#000000;"/>
<rect x="75" y="0" width="5" height="5" style="fill:#000000;"/>
<rect x="80" y="0" width="5" height="5" style="fill:#000000;"/>
<rect x="85" y="0" width="5" height="5" style="fill:#000000;"/>
<rect x="90" y="0" width="5" height="5" style="fill:#000000;"/>
<rect x="95" y="0" width="5" height="5" style="fill:#000000;"/>
<rect x="105" y="0" width="5" height="5" style="fill:#000000;"/>
<rect x="110" y="0" width="5" height="5" style="fill:#000000;"/>
<rect x="5" y="5" width="5" height="5" style="fill:#000000;"/>
<rect x="10" y="5" width="5" height="5" style="fill:#000000;"/>
<rect x="30" y="5" width="5" height="5" style="fill:#000000;"/>
<rect x="35" y="5" width="5" height="5" style="fill:#000000;"/>
<rect x="60" y="5" width="5" height="5" style="fill:#000000;"/>
<rect x="65" y="5" width="5" height="5" style="fill:#000000;"/>
<rect x="75" y="5" width="5" height="5" style="fill:#000000;"/>
<rect x="105" y="5" width="5" height="5" style="fill:#000000;"/>
<rect x="115" y="5" width="5" height="5" style="fill:#000000;"/>
<rect x="0" y="10" width="5" height="5" style="fill:#000000;"/>
<rect x="5" y="10" width="5" height="5" style="fill:#000000;"/>
<rect x="15" y="10" width="5" height="5" style="fill:#000000;"/>
<rect x="25" y="10" width="5" height="5" style="fill:#000000;"/>
<rect x="30" y="10" width="5" height="5" style="fill:#000000;"/>
<rect x="40" y="10" width="5" height="5" style="fill:#000000;"/>
<rect x="55" y="10" width="5" height="5" style="fill:#000000;"/>
<rect x="60" y="10" width="5" height="5" style="fill:#000000;"/>
<rect x="75" y="10" width="5" height="5" style="fill:#000000;"/>
<rect x="80" y="10" width="5" height="5" style="fill:#000000;"/>
<rect x="100" y="10" width="5" height="5" style="fill:#000000;"/>
<rect x="105" y="10" width="5" height="5" style="fill:#000000;"/>
<rect x="115" y="10" width="5" height="5" style="fill:#000000;"/>
<rect x="120" y="10" width="5" height="5" style="fill:#000000;"/>
<rect x="0" y="15" width="5" height="5" style="fill:#000000;"/>
<rect x="15" y="15" width="5" height="5" style="fill:#000000;"/>
<rect x="25" y="15" width="5" height="5" style="fill:#000000;"/>
<rect x="40" y="15" width="5" height="5" style="fill:#000000;"/>
<rect x="45" y="15" width="5" height="5" style="fill:#000000;"/>
<rect x="50" y="15" width="5" height="5" style="fill:#000000;"/>
<rect x="55" y="15" width="5" height="5" style="fill:#000000;"/>
<rect x="65" y="15" width="5" height="5" style="fill:#000000;"/>
<rect x="70" y="15" width="5" height="5" style="fill:#000000;"/>
<rect x="75" y="15" width="5" height="5" style="fill:#000000;"/>
<rect x="85" y="15" width="5" height="5" style="fill:#000000;"/>
<rect x="95" y="15" width="5" height="5" style="fill:#000000;"/>
<rect x="100" y="15" width="5" height="5" style="fill:#000000;"/>
<rect x="115" y="15" width="5" height="5" style="fill:#000000;"/>
<rect x="0" y="20" width="5" height="5" style="fill:#000000;"/>
<rect x="5" y="20" width="5" height="5" style="fill:#000000;"/>
<rect x="10" y="20" width="5" height="5" style="fill:#000000;"/>
<rect x="15" y="20" width="5" height="5" style="fill:#000000;"/>
<rect x="25" y="20" width="5" height="5" style="fill:#000000;"/>
<rect x="30" y="20" width="5" height="5" style="fill:#000000;"/>
<rect x="35" y="20" width="5" height="5" style="fill:#000000;"/>
<rect x="40" y="20" width="5" height="5" style="fill:#000000;"/>
<rect x="65" y="20" width="5" height="5" style="fill:#000000;"/>
<rect x="85" y="20" width="5" height="5" style="fill:#000000;"/>
<rect x="95" y="20" width="5" height="5" style="fill:#000000;"/>
<rect x="105" y="20" width="5" height="5" style="fill:#000000;"/>
<rect x="110" y="20" width="5" height="5" style="fill:#000000;"/>
<rect x="115" y="20" width="5" height="5" style="fill:#000000;"/>
<rect x="120" y="20" width="5" height="5" style="fill:#000000;"/>
<rect x="0" y="25" width="5" height="5" style="fill:#000000;"/>
<rect x="25" y="25" width="5" height="5" style="fill:#000000;"/>
<rect x="45" y="25" width="5" height="5" style="fill:#000000;"/>
<rect x="60" y="25" width="5" height="5" style="fill:#000000;"/>
<rect x="65" y="25" width="5" height="5" style="fill:#000000;"/>
<rect x="70" y="25" width="5" height="5" style="fill:#000000;"/>
<rect x="80" y="25" width="5" height="5" style="fill:#000000;"/>
<rect x="85" y="25" width="5" height="5" style="fill:#000000;"/>
<rect x="95" y="25" width="5" height="5" style="fill:#000000;"/>
<rect x="105" y="25" width="5" height="5" style="fill:#000000;"/>
<rect x="0" y="30" width="5" height="5" style="fill:#000000;"/>
<rect x="5" y="30" width="5" height="5" style="fill:#000000;"/>
<rect x="20" y="30" width="5" height="5" style="fill:#000000;"/>
<rect x="25" y="30" width="5" height="5" style="fill:#000000;"/>
<rect x="30" y="30" width="5" height="5" style="fill:#000000;"/>
<rect x="40" y="30" width="5" height="5" style="fill:#000000;"/>
<rect x="45" y="30" width="5" height="5" style="fill:#000000;"/>
<rect x="50" y="30" width="5" height="5" style="fill:#000000;"/>
<rect x="55" y="30" width="5" height="5" style="fill:#000000;"/>
<rect x="60" y="30" width="5" height="5" style="fill:#000000;"/>
<rect x="80" y="30" width="5" height="5" style="fill:#000000;"/>
<rect x="95" y="30" width="5" height="5" style="fill:#000000;"/>
<rect x="105" y="30" width="5" height="5" style="fill:#000000;"/>
<rect x="110" y="30" width="5" height="5" style="fill:#000000;"/>
<rect x="0" y="35" width="5" height="5" style="fill:#000000;"/>
<rect x="10" y="35" width="5" height="5" style="fill:#000000;"/>
<rect x="15" y="35" width="5" height="5" style="fill:#000000;"/>
<rect x="20" y="35" width="5" height="5" style="fill:#000000;"/>
<rect x="40" y="35" width="5" height="5" style="fill:#000000;"/>
<rect x="65" y="35" width="5" height="5" style="fill:#000000;"/>
<rect x="75" y="35" width="5" height="5" style="fill:#000000;"/>
<rect x="80" y="35" width="5" height="5" style="fill:#000000;"/>
<rect x="85" y="35" width="5" height="5" style="fill:#000000;"/>
<rect x="90" y="35" width="5" height="5" style="fill:#000000;"/>
<rect x="95" y="35" width="5" height="5" style="fill:#000000;"/>
<rect x="105" y="35" width="5" height="5" style="fill:#000000;"/>
<rect x="115" y="35" width="5" height="5" style="fill:#000000;"/>
<rect x="0" y="40" width="5" height="5" style="fill:#000000;"/>
<rect x="10" y="40" width="5" height="5" style="fill:#000000;"/>
<rect x="25" y="40" width="5" height="5" style="fill:#000000;"/>
<rect x="35" y="40" width="5" height="5" style="fill:#000000;"/>
<rect x="40" y="40" width="5" height="5" style="fill:#000000;"/>
<rect x="45" y="40" width="5" height="5" style="fill:#000000;"/>
<rect x="60" y="40" width="5" height="5" style="fill:#000000;"/>
<rect x="65" y="40" width="5" height="5" style="fill:#000000;"/>
<rect x="75" y="40" width="5" height="5" style="fill:#000000;"/>
<rect x="105" y="40" width="5" height="5" style="fill:#000000;"/>
<rect x="115" y="40" width="5" height="5" style="fill:#000000;"/>
<rect x="120" y="40" width="5" height="5" style="fill:#000000;"/>
<rect x="0" y="45" width="5" height="5" style="fill:#000000;"/>
<rect x="10" y="45" width="5" height="5" style="fill:#000000;"/>
<rect x="15" y="45" width="5" height="5" style="fill:#000000;"/>
<rect x="20" y="45" width="5" height="5" style="fill:#000000;"/>
<rect x="25" y="45" width="5" height="5" style="fill:#000000;"/>
<rect x="35" y="45" width="5" height="5" style="fill:#000000;"/>
<rect x="50" y="45" width="5" height="5" style="fill:#000000;"/>
<rect x="55" y="45" width="5" height="5" style="fill:#000000;"/>
<rect x="60" y="45" width="5" height="5" style="fill:#000000;"/>
<rect x="75" y="45" width="5" height="5" style="fill:#000000;"/>
<rect x="80" y="45" width="5" height="5" style="fill:#000000;"/>
<rect x="100" y="45" width="5" height="5" style="fill:#000000;"/>
<rect x="105" y="45" width="5" height="5" style="fill:#000000;"/>
<rect x="115" y="45" width="5" height="5" style="fill:#000000;"/>
<rect x="0" y="50" width="5" height="5" style="fill:#000000;"/>
<rect x="10" y="50" width="5" height="5" style="fill:#000000;"/>
<rect x="35" y="50" width="5" height="5" style="fill:#000000;"/>
<rect x="40" y="50" width="5" height="5" style="fill:#000000;"/>
<rect x="45" y="50" width="5" height="5" style="fill:#000000;"/>
<rect x="50" y="50" width="5" height="5" style="fill:#000000;"/>
<rect x="65" y="50" width="5" height="5" style="fill:#000000;"/>
<rect x="70" y="50" width="5" height="5" style="fill:#000000;"/>
<rect x="75" y="50" width="5" height="5" style="fill:#000000;"/>
<rect x="85" y="50" width="5" height="5" style="fill:#000000;"/>
<rect x="95" y="50" width="5" height="5" style="fill:#000000;"/>
<rect x="100" y="50" width="5" height="5" style="fill:#000000;"/>
<rect x="115" y="50" width="5" height="5" style="fill:#000000;"/>
<rect x="120" y="50" width="5" height="5" style="fill:#000000;"/>
<rect x="0" y="55" width="5" height="5" style="fill:#000000;"/>
<rect x="10" y="55" width="5" height="5" style="fill:#000000;"/>
<rect x="15" y="55" width="5" height="5" style="fill:#000000;"/>
<rect x="30" y="55" width="5" height="5" style="fill:#000000;"/>
<rect x="35" y="55" width="5" height="5" style="fill:#000000;"/>
<rect x="55" y="55" width="5" height="5" style="fill:#000000;"/>
<rect x="60" y="55" width="5" height="5" style="fill:#000000;"/>
<rect x="65" y="55" width="5" height="5" style="fill:#000000;"/>
<rect x="85" y="55" width="5" height="5" style="fill:#000000;"/>
<rect x="95" y="55" width="5" height="5" style="fill:#000000;"/>
<rect x="105" y="55" width="5" height="5" style="fill:#000000;"/>
<rect x="110" y="55" width="5" height="5" style="fill:#000000;"/>
<rect x="115" y="55" width="5" height="5" style="fill:#000000;"/>
<rect x="0" y="60" width="5" height="5" style="fill:#000000;"/>
<rect x="10" y="60" width="5" height="5" style="fill:#000000;"/>
<rect x="20" y="60" width="5" height="5" style="fill:#000000;"/>
<rect x="25" y="60" width="5" height="5" style="fill:#000000;"/>
<rect x="30" y="60" width="5" height="5" style="fill:#000000;"/>
<rect x="40" y="60" width="5" height="5" style="fill:#000000;"/>
<rect x="50" y="60" width="5" height="5" style="fill:#000000;"/>
<rect x="55" y="60" width="5" height="5" style="fill:#000000;"/>
<rect x="70" y="60" width="5" height="5" style="fill:#000000;"/>
<rect x="80" y="60" width="5" height="5" style="fill:#000000;"/>
<rect x="85" y="60" width="5" height="5" style="fill:#000000;"/>
<rect x="95" y="60" width="5" height="5" style="fill:#000000;"/>
<rect x="105" y="60" width="5" height="5" style="fill:#000000;"/>
<rect x="120" y="60" width="5" height="5" style="fill:#000000;"/>
<rect x="0" y="65" width="5" height="5" style="fill:#000000;"/>
<rect x="10" y="65" width="5" height="5" style="fill:#000000;"/>
<rect x="20" y="65" width="5" height="5" style="fill:#000000;"/>
<rect x="40" y="65" width="5" height="5" style="fill:#000000;"/>
<rect x="50" y="65" width="5" height="5" style="fill:#000000;"/>
<rect x="60" y="65" width="5" height="5" style="fill:#000000;"/>
<rect x="65" y="65" width="5" height="5" style="fill:#000000;"/>
<rect x="70" y="65" width="5" height="5" style="fill:#000000;"/>
<rect x="80" y="65" width="5" height="5" style="fill:#000000;"/>
<rect x="95" y="65" width="5" height="5" style="fill:#000000;"/>
<rect x="105" y="65" width="5" height="5" style="fill:#000000;"/>
<rect x="110" y="65" width="5" height="5" style="fill:#000000;"/>
<rect x="115" y="65" width="5" height="5" style="fill:#000000;"/>
<rect x="120" y="65" width="5" height="5" style="fill:#000000;"/>
<rect x="0" y="70" width="5" height="5" style="fill:#000000;"/>
<rect x="10" y="70" width="5" height="5" style="fill:#000000;"/>
<rect x="20" y="70" width="5" height="5" style="fill:#000000;"/>
<rect x="25" y="70" width="5" height="5" style="fill:#000000;"/>
<rect x="35" y="70" width="5" height="5" style="fill:#000000;"/>
<rect x="40" y="70" width="5" height="5" style="fill:#000000;"/>
<rect x="50" y="70" width="5" height="5" style="fill:#000000;"/>
<rect x="60" y="70" width="5" height="5" style="fill:#000000;"/>
<rect x="80" y="70" width="5" height="5" style="fill:#000000;"/>
<rect x="85" y="70" width="5" height="5" style="fill:#000000;"/>
<rect x="90" y="70" width="5" height="5" style="fill:#000000;"/>
<rect x="95" y="70" width="5" height="5" style="fill:#000000;"/>
<rect x="105" y="70" width="5" height="5" style="fill:#000000;"/>
<rect x="0" y="75" width="5" height="5" style="fill:#000000;"/>
<rect x="10" y="75" width="5" height="5" style="fill:#000000;"/>
<rect x="20" y="75" width="5" height="5" style="fill:#000000;"/>
<rect x="35" y="75" width="5" height="5" style="fill:#000000;"/>
<rect x="50" y="75" width="5" height="5" style="fill:#000000;"/>
<rect x="60" y="75" width="5" height="5" style="fill:#000000;"/>
<rect x="65" y="75" width="5" height="5" style="fill:#000000;"/>
<rect x="75" y="75" width="5" height="5" style="fill:#000000;"/>
<rect x="80" y="75" width="5" height="5" style="fill:#000000;"/>
<rect x="105" y="75" width="5" height="5" style="fill:#000000;"/>
<rect x="110" y="75" width="5" height="5" style="fill:#000000;"/>
<rect x="0" y="80" width="5" height="5" style="fill:#000000;"/>
<rect x="10" y="80" width="5" height="5" style="fill:#000000;"/>
<rect x="20" y="80" width="5" height="5" style="fill:#000000;"/>
<rect x="25" y="80" width="5" height="5" style="fill:#000000;"/>
<rect x="30" y="80" width="5" height="5" style="fill:#000000;"/>
<rect x="35" y="80" width="5" height="5" style="fill:#000000;"/>
<rect x="40" y="80" width="5" height="5" style="fill:#000000;"/>
<rect x="45" y="80" width="5" height="5" style="fill:#000000;"/>
<rect x="50" y="80" width="5" height="5" style="fill:#000000;"/>
<rect x="60" y="80" width="5" height="5" style="fill:#000000;"/>
<rect x="75" y="80" width="5" height="5" style="fill:#000000;"/>
<rect x="85" y="80" width="5" height="5" style="fill:#000000;"/>
<rect x="100" y="80" width="5" height="5" style="fill:#000000;"/>
<rect x="105" y="80" width="5" height="5" style="fill:#000000;"/>
<rect x="115" y="80" width="5" height="5" style="fill:#000000;"/>
<rect x="0" y="85" width="5" height="5" style="fill:#000000;"/>
<rect x="10" y="85" width="5" height="5" style="fill:#000000;"/>
<rect x="20" y="85" width="5" height="5" style="fill:#000000;"/>
<rect x="60" y="85" width="5" height="5" style="fill:#000000;"/>
<rect x="65" y="85" width="5" height="5" style="fill:#000000;"/>
<rect x="70" y="85" width="5" height="5" style="fill:#000000;"/>
<rect x="75" y="85" width="5" height="5" style="fill:#000000;"/>
<rect x="85" y="85" width="5" height="5" style="fill:#000000;"/>
<rect x="90" y="85" width="5" height="5" style="fill:#000000;"/>
<rect x="95" y="85" width="5" height="5" style="fill:#000000;"/>
<rect x="100" y="85" width="5" height="5" style="fill:#000000;"/>
<rect x="115" y="85" width="5" height="5" style="fill:#000000;"/>
<rect x="120" y="85" width="5" height="5" style="fill:#000000;"/>
<rect x="0" y="90" width="5" height="5" style="fill:#000000;"/>
<rect x="10" y="90" width="5" height="5" style="fill:#000000;"/>
<rect x="20" y="90" width="5" height="5" style="fill:#000000;"/>
<rect x="25" y="90" width="5" height="5" style="fill:#000000;"/>
<rect x="55" y="90" width="5" height="5" style="fill:#000000;"/>
<rect x="60" y="90" width="5" height="5" style="fill:#000000;"/>
<rect x="85" y="90" width="5" height="5" style="fill:#000000;"/>
<rect x="105" y="90" width="5" height="5" style="fill:#000000;"/>
<rect x="110" y="90" width="5" height="5" style="fill:#000000;"/>
<rect x="115" y="90" width="5" height="5" style="fill:#000000;"/>
<rect x="0" y="95" width="5" height="5" style="fill:#000000;"/>
<rect x="10" y="95" width="5" height="5" style="fill:#000000;"/>
<rect x="20" y="95" width="5" height="5" style="fill:#000000;"/>
<rect x="30" y="95" width="5" height="5" style="fill:#000000;"/>
<rect x="50" y="95" width="5" height="5" style="fill:#000000;"/>
<rect x="55" y="95" width="5" height="5" style="fill:#000000;"/>
<rect x="65" y="95" width="5" height="5" style="fill:#000000;"/>
<rect x="80" y="95" width="5" height="5" style="fill:#000000;"/>
<rect x="85" y="95" width="5" height="5" style="fill:#000000;"/>
<rect x="90" y="95" width="5" height="5" style="fill:#000000;"/>
<rect x="100" y="95" width="5" height="5" style="fill:#000000;"/>
<rect x="105" y="95" width="5" height="5" style="fill:#000000;"/>
<rect x="120" y="95" width="5" height="5" style="fill:#000000;"/>
<rect x="0" y="100" width="5" height="5" style="fill:#000000;"/>
<rect x="10" y="100" width="5" height="5" style="fill:#000000;"/>
<rect x="20" y="100" width="5" height="5" style="fill:#000000;"/>
<rect x="30" y="100" width="5" height="5" style="fill:#000000;"/>
<rect x="35" y="100" width="5" height="5" style="fill:#000000;"/>
<rect x="45" y="100" width="5" height="5" style="fill:#000000;"/>
<rect x="50" y="100" width="5" height="5" style="fill:#000000;"/>
<rect x="65" y="100" width="5" height="5" style="fill:#000000;"/>
<rect x="70" y="100" width="5" height="5" style="fill:#000000;"/>
<rect x="75" y="100" width="5" height="5" style="fill:#000000;"/>
<rect x="80" y="100" width="5" height="5" style="fill:#000000;"/>
<rect x="100" y="100" width="5" height="5" style="fill:#000000;"/>
<rect x="110" y="100" width="5" height="5" style="fill:#000000;"/>
<rect x="115" y="100" width="5" height="5" style="fill:#000000;"/>
<rect x="120" y="100" width="5" height="5" style="fill:#000000;"/>
<rect x="0" y="105" width="5" height="5" style="fill:#000000;"/>
<rect x="10" y="105" width="5" height="5" style="fill:#000000;"/>
<rect x="20" y="105" width="5" height="5" style="fill:#000000;"/>
<rect x="30" y="105" width="5" height="5" style="fill:#000000;"/>
<rect x="45" y="105" width="5" height="5" style="fill:#000000;"/>
<rect x="55" y="105" width="5" height="5" style="fill:#000000;"/>
<rect x="60" y="105" width="5" height="5" style="fill:#000000;"/>
<rect x="65" y="105" width="5" height="5" style="fill:#000000;"/>
<rect x="85" y="105" width="5" height="5" style="fill:#000000;"/>
<rect x="95" y="105" width="5" height="5" style="fill:#000000;"/>
<rect x="100" y="105" width="5" height="5" style="fill:#000000;"/>
<rect x="110" y="105" width="5" height="5" style="fill:#000000;"/>
<rect x="0" y="110" width="5" height="5" style="fill:#000000;"/>
<rect x="10" y="110" width="5" height="5" style="fill:#000000;"/>
<rect x="20" y="110" width="5" height="5" style="fill:#000000;"/>
<rect x="30" y="110" width="5" height="5" style="fill:#000000;"/>
<rect x="35" y="110" width="5" height="5" style="fill:#000000;"/>
<rect x="40" y="110" width="5" height="5" style="fill:#000000;"/>
<rect x="45" y="110" width="5" height="5" style="fill:#000000;"/>
<rect x="55" y="110" width="5" height="5" style="fill:#000000;"/>
<rect x="70" y="110" width="5" height="5" style="fill:#000000;"/>
<rect x="80" y="110" width="5" height="5" style="fill:#000000;"/>
<rect x="85" y="110" width="5" height="5" style="fill:#000000;"/>
<rect x="95" y="110" width="5" height="5" style="fill:#000000;"/>
<rect x="110" y="110" width="5" height="5" style="fill:#000000;"/>
<rect x="115" y="110" width="5" height="5" style="fill:#000000;"/>
<rect x="0" y="115" width="5" height="5" style="fill:#000000;"/>
<rect x="10" y="115" width="5" height="5" style="fill:#000000;"/>
<rect x="20" y="115" width="5" height="5" style="fill:#000000;"/>
<rect x="30" y="115" width="5" height="5" style="fill:#000000;"/>
<rect x="55" y="115" width="5" height="5" style="fill:#000000;"/>
<rect x="60" y="115" width="5" height="5" style="fill:#000000;"/>
<rect x="65" y="115" width="5" height="5" style="fill:#000000;"/>
<rect x="70" y="115" width="5" height="5" style="fill:#000000;"/>
<rect x="80" y="115" width="5" height="5" style="fill:#000000;"/>
<rect x="95" y="115" width="5" height="5" style="fill:#000000;"/>
<rect x="100" y="115" width="5" height="5" style="fill:#000000;"/>
<rect x="105" y="115" width="5" height="5" style="fill:#000000;"/>
<rect x="110" y="115" width="5" height="5" style="fill:#000000;"/>
<rect x="120" y="115" width="5" height="5" style="fill:#000000;"/>
<rect x="0" y="120" width="5" height="5" style="fill:#000000;"/>
<rect x="10" y="120" width="5" height="5" style="fill:#000000;"/>
<rect x="20" y="120" width="5" height="5" style="fill:#000000;"/>
<rect x="30" y="120" width="5" height="5" style="fill:#000000;"/>
<rect x="35" y="120" width="5" height="5" style="fill:#000000;"/>
<rect x="50" y="120" width="5" height="5" style="fill:#000000;"/>
<rect x="55" y="120" width="5" height="5" style="fill:#000000;"/>
<rect x="80" y="120" width="5" height="5" style="fill:#000000;"/>
<rect x="85" y="120" width="5" height="5" style="fill:#000000;"/>
<rect x="90" y="120" width="5" height="5" style="fill:#000000;"/>
<rect x="95" y="120" width="5" height="5" style="fill:#000000;"/>
<rect x="120" y="120" width="5" height="5" style="fill:#000000;"/>
<rect x="0" y="125" width="5" height="5" style="fill:#000000;"/>
<rect x="10" y="125" width="5" height="5" style="fill:#000000;"/>
<rect x="20" y="125" width="5" height="5" style="fill:#000000;"/>
<rect x="30" y="125" width="5" height="5" style="fill:#000000;"/>
<rect x="40" y="125" width="5" height="5" style="fill:#000000;"/>
<rect x="45" y="125" width="5" height="5" style="fill:#000000;"/>
<rect x="50" y="125" width="5" height="5" style="fill:#000000;"/>
<rect x="60" y="125" width="5" height="5" style="fill:#000000;"/>
<rect x="75" y="125" width="5" height="5" style="fill:#000000;"/>
<rect x="80" y="125" width="5" height="5" style="fill:#000000;"/>
<rect x="100" y="125" width="5" height="5" style="fill:#000000;"/>
<rect x="115" y="125" width="5" height="5" style="fill:#000000;"/>
<rect x="120" y="125" width="5" height="5" style="fill:#000000;"/>
</svg>
