<?xml version="1.0"?>
<!-- Generated by SVGo -->
<svg
     viewBox="0 0 625 625"
     xmlns="http://www.w3.org/2000/svg"
     xmlns:xlink="http://www.w3.org/1999/xlink">
<rect x="0" y="0" width="625" height="625" style="fill:#ffffff;"/>
<rect x="25" y="0" width="25" height="25" style="fill:#000000;"/>
<rect x="50" y="0" width="25" height="25" style="fill:#000000;"/>
<rect x="100" y="0" width="25" height="25" style="fill:#000000;"/>
<rect x="125" y="0" width="25" height="25" style="fill:#000000;"/>
<rect x="300" y="0" width="25" height="25" style="fill:#000000;"/>
<rect x="375" y="0" width="25" height="25" style="fill:#000000;"/>
<rect x="400" y="0" width="25" height="25" style="fill:#000000;"/>
<rect x="450" y="0" width="25" height="25" style="fill:#000000;"/>
<rect x="475" y="0" width="25" height="25" style="fill:#000000;"/>
<rect x="525" y="0" width="25" height="25" style="fill:#000000;"/>
<rect x="550" y="0" width="25" height="25" style="fill:#000000;"/>
<rect x="0" y="25" width="25" height="25" style="fill:#000000;"/>
<rect x="25" y="25" width="25" height="25" style="fill:#000000;"/>
<rect x="100" y="25" width="25" height="25" style="fill:#000000;"/>
<rect x="150" y="25" width="25" height="25" style="fill:#000000;"/>
<rect x="275" y="25" width="25" height="25" style="fill:#000000;"/>
<rect x="300" y="25" width="25" height="25" style="fill:#000000;"/>
<rect x="325" y="25" width="25" height="25" style="fill:#000000;"/>
<rect x="350" y="25" width="25" height="25" style="fill:#000000;"/>
<rect x="375" y="25" width="25" height="25" style="fill:#000000;"/>
<rect x="450" y="25" width="25" height="25" style="fill:#000000;"/>
<rect x="525" y="25" width="25" height="25" style="fill:#000000;"/>
<rect x="575" y="25" width="25" height="25" style="fill:#000000;"/>
<rect x="0" y="50" width="25" height="25" style="fill:#000000;"/>
<rect x="50" y="50" width="25" height="25" style="fill:#000000;"/>
<rect x="75" y="50" width="25" height="25" style="fill:#000000;"/>
<rect x="100" y="50" width="25" height="25" style="fill:#000000;"/>
<rect x="150" y="50" width="25" height="25" style="fill:#000000;"/>
<rect x="175" y="50" width="25" height="25" style="fill:#000000;"/>
<rect x="250" y="50" width="25" height="25" style="fill:#000000;"/>
<rect x="275" y="50" width="25" height="25" style="fill:#000000;"/>
<rect x="400" y="50" width="25" height="25" style="fill:#000000;"/>
<rect x="425" y="50" width="25" height="25" style="fill:#000000;"/>
<rect x="450" y="50" width="25" height="25" style="fill:#000000;"/>
<rect x="475" y="50" width="25" height="25" style="fill:#000000;"/>
<rect x="500" y="50" width="25" height="25" style="fill:#000000;"/>
<rect x="525" y="50" width="25" height="25" style="fill:#000000;"/>
<rect x="575" y="50" width="25" height="25" style="fill:#000000;"/>
<rect x="600" y="50" width="25" height="25" style="fill:#000000;"/>
<rect x="0" y="75" width="25" height="25" style="fill:#000000;"/>
<rect x="50" y="75" width="25" height="25" style="fill:#000000;"/>
<rect x="150" y="75" width="25" height="25" style="fill:#000000;"/>
<rect x="200" y="75" width="25" height="25" style="fill:#000000;"/>
<rect x="225" y="75" width="25" height="25" style="fill:#000000;"/>
<rect x="250" y="75" width="25" height="25" style="fill:#000000;"/>
<rect x="300" y="75" width="25" height="25" style="fill:#000000;"/>
<rect x="375" y="75" width="25" height="25" style="fill:#000000;"/>
<rect x="400" y="75" width="25" height="25" style="fill:#000000;"/>
<rect x="575" y="75" width="25" height="25" style="fill:#000000;"/>
<rect x="0" y="100" width="25" height="25" style="fill:#000000;"/>
<rect x="50" y="100" width="25" height="25" style="fill:#000000;"/>
<rect x="75" y="100" width="25" height="25" style="fill:#000000;"/>
<rect x="125" y="100" width="25" height="25" style="fill:#000000;"/>
<rect x="150" y="100" width="25" height="25" style="fill:#000000;"/>
<rect x="200" y="100" width="25" height="25" style="fill:#000000;"/>
<rect x="300" y="100" width="25" height="25" style="fill:#000000;"/>
<rect x="325" y="100" width="25" height="25" style="fill:#000000;"/>
<rect x="350" y="100" width="25" height="25" style="fill:#000000;"/>
<rect x="375" y="100" width="25" height="25" style="fill:#000000;"/>
<rect x="425" y="100" width="25" height="25" style="fill:#000000;"/>
<rect x="550" y="100" width="25" height="25" style="fill:#000000;"/>
<rect x="575" y="100" width="25" height="25" style="fill:#000000;"/>
<rect x="600" y="100" width="25" height="25" style="fill:#000000;"/>
<rect x="0" y="125" width="25" height="25" style="fill:#000000;"/>
<rect x="50" y="125" width="25" height="25" style="fill:#000000;"/>
<rect x="125" y="125" width="25" height="25" style="fill:#000000;"/>
<rect x="200" y="125" width="25" height="25" style="fill:#000000;"/>
<rect x="225" y="125" width="25" height="25" style="fill:#000000;"/>
<rect x="275" y="125" width="25" height="25" style="fill:#000000;"/>
<rect x="300" y="125" width="25" height="25" style="fill:#000000;"/>
<rect x="425" y="125" width="25" height="25" style="fill:#000000;"/>
<rect x="450" y="125" width="25" height="25" style="fill:#000000;"/>
<rect x="525" y="125" width="25" height="25" style="fill:#000000;"/>
<rect x="550" y="125" width="25" height="25" style="fill:#000000;"/>
<rect x="0" y="150" width="25" height="25" style="fill:#000000;"/>
<rect x="50" y="150" width="25" height="25" style="fill:#000000;"/>
<rect x="75" y="150" width="25" height="25" style="fill:#000000;"/>
<rect x="100" y="150" width="25" height="25" style="fill:#000000;"/>
<rect x="125" y="150" width="25" height="25" style="fill:#000000;"/>
<rect x="150" y="150" width="25" height="25" style="fill:#000000;"/>
<rect x="175" y="150" width="25" height="25" style="fill:#000000;"/>
<rect x="200" y="150" width="25" height="25" style="fill:#000000;"/>
<rect x="275" y="150" width="25" height="25" style="fill:#000000;"/>
<rect x="325" y="150" width="25" height="25" style="fill:#000000;"/>
<rect x="400" y="150" width="25" height="25" style="fill:#000000;"/>
<rect x="425" y="150" width="25" height="25" style="fill:#000000;"/>
<rect x="475" y="150" width="25" height="25" style="fill:#000000;"/>
<rect x="500" y="150" width="25" height="25" style="fill:#000000;"/>
<rect x="525" y="150" width="25" height="25" style="fill:#000000;"/>
<rect x="575" y="150" width="25" height="25" style="fill:#000000;"/>
<rect x="0" y="175" width="25" height="25" style="fill:#000000;"/>
<rect x="50" y="175" width="25" height="25" style="fill:#000000;"/>
<rect x="225" y="175" width="25" height="25" style="fill:#000000;"/>
<rect x="250" y="175" width="25" height="25" style="fill:#000000;"/>
<rect x="275" y="175" width="25" height="25" style="fill:#000000;"/>
<rect x="325" y="175" width="25" height="25" style="fill:#000000;"/>
<rect x="350" y="175" width="25" height="25" style="fill:#000000;"/>
<rect x="375" y="175" width="25" height="25" style="fill:#000000;"/>
<rect x="400" y="175" width="25" height="25" style="fill:#000000;"/>
<rect x="475" y="175" width="25" height="25" style="fill:#000000;"/>
<rect x="575" y="175" width="25" height="25" style="fill:#000000;"/>
<rect x="600" y="175" width="25" height="25" style="fill:#000000;"/>
<rect x="0" y="200" width="25" height="25" style="fill:#000000;"/>
<rect x="50" y="200" width="25" height="25" style="fill:#000000;"/>
<rect x="75" y="200" width="25" height="25" style="fill:#000000;"/>
<rect x="200" y="200" width="25" height="25" style="fill:#000000;"/>
<rect x="225" y="200" width="25" height="25" style="fill:#000000;"/>
<rect x="325" y="200" width="25" height="25" style="fill:#000000;"/>
<rect x="425" y="200" width="25" height="25" style="fill:#000000;"/>
<rect x="450" y="200" width="25" height="25" style="fill:#000000;"/>
<rect x="475" y="200" width="25" height="25" style="fill:#000000;"/>
<rect x="500" y="200" width="25" height="25" style="fill:#000000;"/>
<rect x="550" y="200" width="25" height="25" style="fill:#000000;"/>
<rect x="575" y="200" width="25" height="25" style="fill:#000000;"/>
<rect x="0" y="225" width="25" height="25" style="fill:#000000;"/>
<rect x="50" y="225" width="25" height="25" style="fill:#000000;"/>
<rect x="100" y="225" width="25" height="25" style="fill:#000000;"/>
<rect x="175" y="225" width="25" height="25" style="fill:#000000;"/>
<rect x="200" y="225" width="25" height="25" style="fill:#000000;"/>
<rect x="250" y="225" width="25" height="25" style="fill:#000000;"/>
<rect x="300" y="225" width="25" height="25" style="fill:#000000;"/>
<rect x="325" y="225" width="25" height="25" style="fill:#000000;"/>
<rect x="350" y="225" width="25" height="25" style="fill:#000000;"/>
<rect x="400" y="225" width="25" height="25" style="fill:#000000;"/>
<rect x="425" y="225" width="25" height="25" style="fill:#000000;"/>
<rect x="550" y="225" width="25" height="25" style="fill:#000000;"/>
<rect x="600" y="225" width="25" height="25" style="fill:#000000;"/>
<rect x="0" y="250" width="25" height="25" style="fill:#000000;"/>
<rect x="50" y="250" width="25" height="25" style="fill:#000000;"/>
<rect x="100" y="250" width="25" height="25" style="fill:#000000;"/>
<rect x="125" y="250" width="25" height="25" style="fill:#000000;"/>
<rect x="150" y="250" width="25" height="25" style="fill:#000000;"/>
<rect x="175" y="250" width="25" height="25" style="fill:#000000;"/>
<rect x="250" y="250" width="25" height="25" style="fill:#000000;"/>
<rect x="300" y="250" width="25" height="25" style="fill:#000000;"/>
<rect x="400" y="250" width="25" height="25" style="fill:#000000;"/>
<rect x="450" y="250" width="25" height="25" style="fill:#000000;"/>
<rect x="525" y="250" width="25" height="25" style="fill:#000000;"/>
<rect x="550" y="250" width="25" height="25" style="fill:#000000;"/>
<rect x="600" y="250" width="25" height="25" style="fill:#000000;"/>
<rect x="0" y="275" width="25" height="25" style="fill:#000000;"/>
<rect x="50" y="275" width="25" height="25" style="fill:#000000;"/>
<rect x="100" y="275" width="25" height="25" style="fill:#000000;"/>
<rect x="200" y="275" width="25" height="25" style="fill:#000000;"/>
<rect x="225" y="275" width="25" height="25" style="fill:#000000;"/>
<rect x="250" y="275" width="25" height="25" style="fill:#000000;"/>
<rect x="300" y="275" width="25" height="25" style="fill:#000000;"/>
<rect x="325" y="275" width="25" height="25" style="fill:#000000;"/>
<rect x="375" y="275" width="25" height="25" style="fill:#000000;"/>
<rect x="400" y="275" width="25" height="25" style="fill:#000000;"/>
<rect x="450" y="275" width="25" height="25" style="fill:#000000;"/>
<rect x="475" y="275" width="25" height="25" style="fill:#000000;"/>
<rect x="500" y="275" width="25" height="25" style="fill:#000000;"/>
<rect x="525" y="275" width="25" height="25" style="fill:#000000;"/>
<rect x="600" y="275" width="25" height="25" style="fill:#000000;"/>
<rect x="0" y="300" width="25" height="25" style="fill:#000000;"/>
<rect x="50" y="300" width="25" height="25" style="fill:#000000;"/>
<rect x="100" y="300" width="25" height="25" style="fill:#000000;"/>
<rect x="125" y="300" width="25" height="25" style="fill:#000000;"/>
<rect x="175" y="300" width="25" height="25" style="fill:#000000;"/>
<rect x="200" y="300" width="25" height="25" style="fill:#000000;"/>
<rect x="300" y="300" width="25" height="25" style="fill:#000000;"/>
<rect x="375" y="300" width="25" height="25" style="fill:#000000;"/>
<rect x="450" y="300" width="25" height="25" style="fill:#000000;"/>
<rect x="550" y="300" width="25" height="25" style="fill:#000000;"/>
<rect x="575" y="300" width="25" height="25" style="fill:#000000;"/>
<rect x="600" y="300" width="25" height="25" style="fill:#000000;"/>
<rect x="0" y="325" width="25" height="25" style="fill:#000000;"/>
<rect x="50" y="325" width="25" height="25" style="fill:#000000;"/>
<rect x="100" y="325" width="25" height="25" style="fill:#000000;"/>
<rect x="175" y="325" width="25" height="25" style="fill:#000000;"/>
<rect x="225" y="325" width="25" height="25" style="fill:#000000;"/>
<rect x="275" y="325" width="25" height="25" style="fill:#000000;"/>
<rect x="300" y="325" width="25" height="25" style="fill:#000000;"/>
<rect x="325" y="325" width="25" height="25" style="fill:#000000;"/>
<rect x="350" y="325" width="25" height="25" style="fill:#000000;"/>
<rect x="375" y="325" width="25" height="25" style="fill:#000000;"/>
<rect x="400" y="325" width="25" height="25" style="fill:#000000;"/>
<rect x="425" y="325" width="25" height="25" style="fill:#000000;"/>
<rect x="450" y="325" width="25" height="25" style="fill:#000000;"/>
<rect x="475" y="325" width="25" height="25" style="fill:#000000;"/>
<rect x="525" y="325" width="25" height="25" style="fill:#000000;"/>
<rect x="550" y="325" width="25" height="25" style="fill:#000000;"/>
<rect x="0" y="350" width="25" height="25" style="fill:#000000;"/>
<rect x="50" y="350" width="25" height="25" style="fill:#000000;"/>
<rect x="100" y="350" width="25" height="25" style="fill:#000000;"/>
<rect x="125" y="350" width="25" height="25" style="fill:#000000;"/>
<rect x="150" y="350" width="25" height="25" style="fill:#000000;"/>
<rect x="175" y="350" width="25" height="25" style="fill:#000000;"/>
<rect x="225" y="350" width="25" height="25" style="fill:#000000;"/>
<rect x="275" y="350" width="25" height="25" style="fill:#000000;"/>
<rect x="525" y="350" width="25" height="25" style="fill:#000000;"/>
<rect x="575" y="350" width="25" height="25" style="fill:#000000;"/>
<rect x="0" y="375" width="25" height="25" style="fill:#000000;"/>
<rect x="50" y="375" width="25" height="25" style="fill:#000000;"/>
<rect x="100" y="375" width="25" height="25" style="fill:#000000;"/>
<rect x="225" y="375" width="25" height="25" style="fill:#000000;"/>
<rect x="275" y="375" width="25" height="25" style="fill:#000000;"/>
<rect x="300" y="375" width="25" height="25" style="fill:#000000;"/>
<rect x="500" y="375" width="25" height="25" style="fill:#000000;"/>
<rect x="525" y="375" width="25" height="25" style="fill:#000000;"/>
<rect x="575" y="375" width="25" height="25" style="fill:#000000;"/>
<rect x="600" y="375" width="25" height="25" style="fill:#000000;"/>
<rect x="0" y="400" width="25" height="25" style="fill:#000000;"/>
<rect x="50" y="400" width="25" height="25" style="fill:#000000;"/>
<rect x="100" y="400" width="25" height="25" style="fill:#000000;"/>
<rect x="125" y="400" width="25" height="25" style="fill:#000000;"/>
<rect x="200" y="400" width="25" height="25" style="fill:#000000;"/>
<rect x="225" y="400" width="25" height="25" style="fill:#000000;"/>
<rect x="275" y="400" width="25" height="25" style="fill:#000000;"/>
<rect x="325" y="400" width="25" height="25" style="fill:#000000;"/>
<rect x="475" y="400" width="25" height="25" style="fill:#000000;"/>
<rect x="500" y="400" width="25" height="25" style="fill:#000000;"/>
<rect x="575" y="400" width="25" height="25" style="fill:#000000;"/>
<rect x="0" y="425" width="25" height="25" style="fill:#000000;"/>
<rect x="50" y="425" width="25" height="25" style="fill:#000000;"/>
<rect x="100" y="425" width="25" height="25" style="fill:#000000;"/>
<rect x="150" y="425" width="25" height="25" style="fill:#000000;"/>
<rect x="175" y="425" width="25" height="25" style="fill:#000000;"/>
<rect x="200" y="425" width="25" height="25" style="fill:#000000;"/>
<rect x="275" y="425" width="25" height="25" style="fill:#000000;"/>
<rect x="325" y="425" width="25" height="25" style="fill:#000000;"/>
<rect x="350" y="425" width="25" height="25" style="fill:#000000;"/>
<rect x="450" y="425" width="25" height="25" style="fill:#000000;"/>
<rect x="475" y="425" width="25" height="25" style="fill:#000000;"/>
<rect x="525" y="425" width="25" height="25" style="fill:#000000;"/>
<rect x="550" y="425" width="25" height="25" style="fill:#000000;"/>
<rect x="575" y="425" width="25" height="25" style="fill:#000000;"/>
<rect x="600" y="425" width="25" height="25" style="fill:#000000;"/>
<rect x="0" y="450" width="25" height="25" style="fill:#000000;"/>
<rect x="50" y="450" width="25" height="25" style="fill:#000000;"/>
<rect x="100" y="450" width="25" height="25" style="fill:#000000;"/>
<rect x="150" y="450" width="25" height="25" style="fill:#000000;"/>
<rect x="225" y="450" width="25" height="25" style="fill:#000000;"/>
<rect x="250" y="450" width="25" height="25" style="fill:#000000;"/>
<rect x="275" y="450" width="25" height="25" style="fill:#000000;"/>
<rect x="325" y="450" width="25" height="25" style="fill:#000000;"/>
<rect x="375" y="450" width="25" height="25" style="fill:#000000;"/>
<rect x="425" y="450" width="25" height="25" style="fill:#000000;"/>
<rect x="450" y="450" width="25" height="25" style="fill:#000000;"/>
<rect x="525" y="450" width="25" height="25" style="fill:#000000;"/>
<rect x="0" y="475" width="25" height="25" style="fill:#000000;"/>
<rect x="50" y="475" width="25" height="25" style="fill:#000000;"/>
<rect x="100" y="475" width="25" height="25" style="fill:#000000;"/>
<rect x="150" y="475" width="25" height="25" style="fill:#000000;"/>
<rect x="175" y="475" width="25" height="25" style="fill:#000000;"/>
<rect x="200" y="475" width="25" height="25" style="fill:#000000;"/>
<rect x="225" y="475" width="25" height="25" style="fill:#000000;"/>
<rect x="325" y="475" width="25" height="25" style="fill:#000000;"/>
<rect x="375" y="475" width="25" height="25" style="fill:#000000;"/>
<rect x="425" y="475" width="25" height="25" style="fill:#000000;"/>
<rect x="475" y="475" width="25" height="25" style="fill:#000000;"/>
<rect x="500" y="475" width="25" height="25" style="fill:#000000;"/>
<rect x="525" y="475" width="25" height="25" style="fill:#000000;"/>
<rect x="550" y="475" width="25" height="25" style="fill:#000000;"/>
<rect x="0" y="500" width="25" height="25" style="fill:#000000;"/>
<rect x="50" y="500" width="25" height="25" style="fill:#000000;"/>
<rect x="100" y="500" width="25" height="25" style="fill:#000000;"/>
<rect x="150" y="500" width="25" height="25" style="fill:#000000;"/>
<rect x="250" y="500" width="25" height="25" style="fill:#000000;"/>
<rect x="300" y="500" width="25" height="25" style="fill:#000000;"/>
<rect x="325" y="500" width="25" height="25" style="fill:#000000;"/>
<rect x="375" y="500" width="25" height="25" style="fill:#000000;"/>
<rect x="425" y="500" width="25" height="25" style="fill:#000000;"/>
<rect x="475" y="500" width="25" height="25" style="fill:#000000;"/>
<rect x="575" y="500" width="25" height="25" style="fill:#000000;"/>
<rect x="0" y="525" width="25" height="25" style="fill:#000000;"/>
<rect x="50" y="525" width="25" height="25" style="fill:#000000;"/>
<rect x="100" y="525" width="25" height="25" style="fill:#000000;"/>
<rect x="150" y="525" width="25" height="25" style="fill:#000000;"/>
<rect x="175" y="525" width="25" height="25" style="fill:#000000;"/>
<rect x="225" y="525" width="25" height="25" style="fill:#000000;"/>
<rect x="250" y="525" width="25" height="25" style="fill:#000000;"/>
<rect x="300" y="525" width="25" height="25" style="fill:#000000;"/>
<rect x="375" y="525" width="25" height="25" style="fill:#000000;"/>
<rect x="425" y="525" width="25" height="25" style="fill:#000000;"/>
<rect x="475" y="525" width="25" height="25" style="fill:#000000;"/>
<rect x="500" y="525" width="25" height="25" style="fill:#000000;"/>
<rect x="550" y="525" width="25" height="25" style="fill:#000000;"/>
<rect x="575" y="525" width="25" height="25" style="fill:#000000;"/>
<rect x="600" y="525" width="25" height="25" style="fill:#000000;"/>
<rect x="0" y="550" width="25" height="25" style="fill:#000000;"/>
<rect x="50" y="550" width="25" height="25" style="fill:#000000;"/>
<rect x="100" y="550" width="25" height="25" style="fill:#000000;"/>
<rect x="150" y="550" width="25" height="25" style="fill:#000000;"/>
<rect x="225" y="550" width="25" height="25" style="fill:#000000;"/>
<rect x="300" y="550" width="25" height="25" style="fill:#000000;"/>
<rect x="325" y="550" width="25" height="25" style="fill:#000000;"/>
<rect x="350" y="550" width="25" height="25" style="fill:#000000;"/>
<rect x="375" y="550" width="25" height="25" style="fill:#000000;"/>
<rect x="425" y="550" width="25" height="25" style="fill:#000000;"/>
<rect x="475" y="550" width="25" height="25" style="fill:#000000;"/>
<rect x="550" y="550" width="25" height="25" style="fill:#000000;"/>
<rect x="0" y="575" width="25" height="25" style="fill:#000000;"/>
<rect x="50" y="575" width="25" height="25" style="fill:#000000;"/>
<rect x="100" y="575" width="25" height="25" style="fill:#000000;"/>
<rect x="150" y="575" width="25" height="25" style="fill:#000000;"/>
<rect x="175" y="575" width="25" height="25" style="fill:#000000;"/>
<rect x="200" y="575" width="25" height="25" style="fill:#000000;"/>
<rect x="225" y="575" width="25" height="25" style="fill:#000000;"/>
<rect x="250" y="575" width="25" height="25" style="fill:#000000;"/>
<rect x="275" y="575" width="25" height="25" style="fill:#000000;"/>
<rect x="300" y="575" width="25" height="25" style="fill:#000000;"/>
<rect x="425" y="575" width="25" height="25" style="fill:#000000;"/>
<rect x="475" y="575" width="25" height="25" style="fill:#000000;"/>
<rect x="500" y="575" width="25" height="25" style="fill:#000000;"/>
<rect x="525" y="575" width="25" height="25" style="fill:#000000;"/>
<rect x="550" y="575" width="25" height="25" style="fill:#000000;"/>
<rect x="575" y="575" width="25" height="25" style="fill:#000000;"/>
<rect x="0" y="600" width="25" height="25" style="fill:#000000;"/>
<rect x="50" y="600" width="25" height="25" style="fill:#000000;"/>
<rect x="100" y="600" width="25" height="25" style="fill:#000000;"/>
<rect x="150" y="600" width="25" height="25" style="fill:#000000;"/>
<rect x="325" y="600" width="25" height="25" style="fill:#000000;"/>
<rect x="400" y="600" width="25" height="25" style="fill:#000000;"/>
<rect x="425" y="600" width="25" height="25" style="fill:#000000;"/>
<rect x="475" y="600" width="25" height="25" style="fill:#000000;"/>
<rect x="600" y="600" width="25" height="25" style="fill:#000000;"/>
<rect x="0" y="625" width="25" height="25" style="fill:#000000;"/>
<rect x="50" y="625" width="25" height="25" style="fill:#000000;"/>
<rect x="100" y="625" width="25" height="25" style="fill:#000000;"/>
<rect x="150" y="625" width="25" height="25" style="fill:#000000;"/>
<rect x="175" y="625" width="25" height="25" style="fill:#000000;"/>
<rect x="300" y="625" width="25" height="25" style="fill:#000000;"/>
<rect x="325" y="625" width="25" height="25" style="fill:#000000;"/>
<rect x="350" y="625" width="25" height="25" style="fill:#000000;"/>
<rect x="375" y="625" width="25" height="25" style="fill:#000000;"/>
<rect x="400" y="625" width="25" height="25" style="fill:#000000;"/>
<rect x="475" y="625" width="25" height="25" style="fill:#000000;"/>
<rect x="500" y="625" width="25" height="25" style="fill:#000000;"/>
<rect x="575" y="625" width="25" height="25" style="fill:#000000;"/>
<rect x="600" y="625" width="25" height="25" style="fill:#000000;"/>
</svg>
