<?xml version="1.0"?>
<!-- Generated by SVGo -->
<svg width="250" height="250"
     xmlns="http://www.w3.org/2000/svg"
     xmlns:xlink="http://www.w3.org/1999/xlink">
<rect x="0" y="0" width="250" height="250" style="fill:#ffffff;"/>
<rect x="0" y="0" width="10" height="10" style="fill:#000000;"/>
<rect x="20" y="0" width="10" height="10" style="fill:#000000;"/>
<rect x="30" y="0" width="10" height="10" style="fill:#000000;"/>
<rect x="50" y="0" width="10" height="10" style="fill:#000000;"/>
<rect x="70" y="0" width="10" height="10" style="fill:#000000;"/>
<rect x="80" y="0" width="10" height="10" style="fill:#000000;"/>
<rect x="110" y="0" width="10" height="10" style="fill:#000000;"/>
<rect x="140" y="0" width="10" height="10" style="fill:#000000;"/>
<rect x="160" y="0" width="10" height="10" style="fill:#000000;"/>
<rect x="180" y="0" width="10" height="10" style="fill:#000000;"/>
<rect x="190" y="0" width="10" height="10" style="fill:#000000;"/>
<rect x="200" y="0" width="10" height="10" style="fill:#000000;"/>
<rect x="230" y="0" width="10" height="10" style="fill:#000000;"/>
<rect x="240" y="0" width="10" height="10" style="fill:#000000;"/>
<rect x="0" y="10" width="10" height="10" style="fill:#000000;"/>
<rect x="10" y="10" width="10" height="10" style="fill:#000000;"/>
<rect x="20" y="10" width="10" height="10" style="fill:#000000;"/>
<rect x="30" y="10" width="10" height="10" style="fill:#000000;"/>
<rect x="40" y="10" width="10" height="10" style="fill:#000000;"/>
<rect x="50" y="10" width="10" height="10" style="fill:#000000;"/>
<rect x="60" y="10" width="10" height="10" style="fill:#000000;"/>
<rect x="70" y="10" width="10" height="10" style="fill:#000000;"/>
<rect x="80" y="10" width="10" height="10" style="fill:#000000;"/>
<rect x="100" y="10" width="10" height="10" style="fill:#000000;"/>
<rect x="110" y="10" width="10" height="10" style="fill:#000000;"/>
<rect x="130" y="10" width="10" height="10" style="fill:#000000;"/>
<rect x="140" y="10" width="10" height="10" style="fill:#000000;"/>
<rect x="150" y="10" width="10" height="10" style="fill:#000000;"/>
<rect x="160" y="10" width="10" height="10" style="fill:#000000;"/>
<rect x="170" y="10" width="10" height="10" style="fill:#000000;"/>
<rect x="180" y="10" width="10" height="10" style="fill:#000000;"/>
<rect x="200" y="10" width="10" height="10" style="fill:#000000;"/>
<rect x="220" y="10" width="10" height="10" style="fill:#000000;"/>
<rect x="230" y="10" width="10" height="10" style="fill:#000000;"/>
<rect x="240" y="10" width="10" height="10" style="fill:#000000;"/>
<rect x="0" y="20" width="10" height="10" style="fill:#000000;"/>
<rect x="80" y="20" width="10" height="10" style="fill:#000000;"/>
<rect x="90" y="20" width="10" height="10" style="fill:#000000;"/>
<rect x="100" y="20" width="10" height="10" style="fill:#000000;"/>
<rect x="110" y="20" width="10" height="10" style="fill:#000000;"/>
<rect x="120" y="20" width="10" height="10" style="fill:#000000;"/>
<rect x="130" y="20" width="10" height="10" style="fill:#000000;"/>
<rect x="180" y="20" width="10" height="10" style="fill:#000000;"/>
<rect x="190" y="20" width="10" height="10" style="fill:#000000;"/>
<rect x="200" y="20" width="10" height="10" style="fill:#000000;"/>
<rect x="210" y="20" width="10" height="10" style="fill:#000000;"/>
<rect x="220" y="20" width="10" height="10" style="fill:#000000;"/>
<rect x="240" y="20" width="10" height="10" style="fill:#000000;"/>
<rect x="0" y="30" width="10" height="10" style="fill:#000000;"/>
<rect x="70" y="30" width="10" height="10" style="fill:#000000;"/>
<rect x="80" y="30" width="10" height="10" style="fill:#000000;"/>
<rect x="130" y="30" width="10" height="10" style="fill:#000000;"/>
<rect x="170" y="30" width="10" height="10" style="fill:#000000;"/>
<rect x="180" y="30" width="10" height="10" style="fill:#000000;"/>
<rect x="220" y="30" width="10" height="10" style="fill:#000000;"/>
<rect x="230" y="30" width="10" height="10" style="fill:#000000;"/>
<rect x="240" y="30" width="10" height="10" style="fill:#000000;"/>
<rect x="0" y="40" width="10" height="10" style="fill:#000000;"/>
<rect x="60" y="40" width="10" height="10" style="fill:#000000;"/>
<rect x="70" y="40" width="10" height="10" style="fill:#000000;"/>
<rect x="80" y="40" width="10" height="10" style="fill:#000000;"/>
<rect x="120" y="40" width="10" height="10" style="fill:#000000;"/>
<rect x="130" y="40" width="10" height="10" style="fill:#000000;"/>
<rect x="160" y="40" width="10" height="10" style="fill:#000000;"/>
<rect x="170" y="40" width="10" height="10" style="fill:#000000;"/>
<rect x="180" y="40" width="10" height="10" style="fill:#000000;"/>
<rect x="210" y="40" width="10" height="10" style="fill:#000000;"/>
<rect x="220" y="40" width="10" height="10" style="fill:#000000;"/>
<rect x="240" y="40" width="10" height="10" style="fill:#000000;"/>
<rect x="0" y="50" width="10" height="10" style="fill:#000000;"/>
<rect x="50" y="50" width="10" height="10" style="fill:#000000;"/>
<rect x="60" y="50" width="10" height="10" style="fill:#000000;"/>
<rect x="80" y="50" width="10" height="10" style="fill:#000000;"/>
<rect x="110" y="50" width="10" height="10" style="fill:#000000;"/>
<rect x="120" y="50" width="10" height="10" style="fill:#000000;"/>
<rect x="130" y="50" width="10" height="10" style="fill:#000000;"/>
<rect x="150" y="50" width="10" height="10" style="fill:#000000;"/>
<rect x="160" y="50" width="10" height="10" style="fill:#000000;"/>
<rect x="180" y="50" width="10" height="10" style="fill:#000000;"/>
<rect x="200" y="50" width="10" height="10" style="fill:#000000;"/>
<rect x="210" y="50" width="10" height="10" style="fill:#000000;"/>
<rect x="220" y="50" width="10" height="10" style="fill:#000000;"/>
<rect x="230" y="50" width="10" height="10" style="fill:#000000;"/>
<rect x="240" y="50" width="10" height="10" style="fill:#000000;"/>
<rect x="0" y="60" width="10" height="10" style="fill:#000000;"/>
<rect x="40" y="60" width="10" height="10" style="fill:#000000;"/>
<rect x="50" y="60" width="10" height="10" style="fill:#000000;"/>
<rect x="60" y="60" width="10" height="10" style="fill:#000000;"/>
<rect x="70" y="60" width="10" height="10" style="fill:#000000;"/>
<rect x="80" y="60" width="10" height="10" style="fill:#000000;"/>
<rect x="100" y="60" width="10" height="10" style="fill:#000000;"/>
<rect x="110" y="60" width="10" height="10" style="fill:#000000;"/>
<rect x="130" y="60" width="10" height="10" style="fill:#000000;"/>
<rect x="140" y="60" width="10" height="10" style="fill:#000000;"/>
<rect x="150" y="60" width="10" height="10" style="fill:#000000;"/>
<rect x="160" y="60" width="10" height="10" style="fill:#000000;"/>
<rect x="170" y="60" width="10" height="10" style="fill:#000000;"/>
<rect x="180" y="60" width="10" height="10" style="fill:#000000;"/>
<rect x="190" y="60" width="10" height="10" style="fill:#000000;"/>
<rect x="200" y="60" width="10" height="10" style="fill:#000000;"/>
<rect x="240" y="60" width="10" height="10" style="fill:#000000;"/>
<rect x="0" y="70" width="10" height="10" style="fill:#000000;"/>
<rect x="30" y="70" width="10" height="10" style="fill:#000000;"/>
<rect x="40" y="70" width="10" height="10" style="fill:#000000;"/>
<rect x="80" y="70" width="10" height="10" style="fill:#000000;"/>
<rect x="90" y="70" width="10" height="10" style="fill:#000000;"/>
<rect x="100" y="70" width="10" height="10" style="fill:#000000;"/>
<rect x="110" y="70" width="10" height="10" style="fill:#000000;"/>
<rect x="120" y="70" width="10" height="10" style="fill:#000000;"/>
<rect x="130" y="70" width="10" height="10" style="fill:#000000;"/>
<rect x="200" y="70" width="10" height="10" style="fill:#000000;"/>
<rect x="230" y="70" width="10" height="10" style="fill:#000000;"/>
<rect x="240" y="70" width="10" height="10" style="fill:#000000;"/>
<rect x="0" y="80" width="10" height="10" style="fill:#000000;"/>
<rect x="20" y="80" width="10" height="10" style="fill:#000000;"/>
<rect x="30" y="80" width="10" height="10" style="fill:#000000;"/>
<rect x="40" y="80" width="10" height="10" style="fill:#000000;"/>
<rect x="70" y="80" width="10" height="10" style="fill:#000000;"/>
<rect x="80" y="80" width="10" height="10" style="fill:#000000;"/>
<rect x="130" y="80" width="10" height="10" style="fill:#000000;"/>
<rect x="190" y="80" width="10" height="10" style="fill:#000000;"/>
<rect x="200" y="80" width="10" height="10" style="fill:#000000;"/>
<rect x="220" y="80" width="10" height="10" style="fill:#000000;"/>
<rect x="230" y="80" width="10" height="10" style="fill:#000000;"/>
<rect x="240" y="80" width="10" height="10" style="fill:#000000;"/>
<rect x="0" y="90" width="10" height="10" style="fill:#000000;"/>
<rect x="10" y="90" width="10" height="10" style="fill:#000000;"/>
<rect x="20" y="90" width="10" height="10" style="fill:#000000;"/>
<rect x="40" y="90" width="10" height="10" style="fill:#000000;"/>
<rect x="60" y="90" width="10" height="10" style="fill:#000000;"/>
<rect x="70" y="90" width="10" height="10" style="fill:#000000;"/>
<rect x="80" y="90" width="10" height="10" style="fill:#000000;"/>
<rect x="120" y="90" width="10" height="10" style="fill:#000000;"/>
<rect x="130" y="90" width="10" height="10" style="fill:#000000;"/>
<rect x="180" y="90" width="10" height="10" style="fill:#000000;"/>
<rect x="190" y="90" width="10" height="10" style="fill:#000000;"/>
<rect x="200" y="90" width="10" height="10" style="fill:#000000;"/>
<rect x="210" y="90" width="10" height="10" style="fill:#000000;"/>
<rect x="220" y="90" width="10" height="10" style="fill:#000000;"/>
<rect x="240" y="90" width="10" height="10" style="fill:#000000;"/>
<rect x="0" y="100" width="10" height="10" style="fill:#000000;"/>
<rect x="20" y="100" width="10" height="10" style="fill:#000000;"/>
<rect x="30" y="100" width="10" height="10" style="fill:#000000;"/>
<rect x="40" y="100" width="10" height="10" style="fill:#000000;"/>
<rect x="50" y="100" width="10" height="10" style="fill:#000000;"/>
<rect x="60" y="100" width="10" height="10" style="fill:#000000;"/>
<rect x="80" y="100" width="10" height="10" style="fill:#000000;"/>
<rect x="110" y="100" width="10" height="10" style="fill:#000000;"/>
<rect x="120" y="100" width="10" height="10" style="fill:#000000;"/>
<rect x="130" y="100" width="10" height="10" style="fill:#000000;"/>
<rect x="170" y="100" width="10" height="10" style="fill:#000000;"/>
<rect x="180" y="100" width="10" height="10" style="fill:#000000;"/>
<rect x="220" y="100" width="10" height="10" style="fill:#000000;"/>
<rect x="230" y="100" width="10" height="10" style="fill:#000000;"/>
<rect x="240" y="100" width="10" height="10" style="fill:#000000;"/>
<rect x="0" y="110" width="10" height="10" style="fill:#000000;"/>
<rect x="10" y="110" width="10" height="10" style="fill:#000000;"/>
<rect x="20" y="110" width="10" height="10" style="fill:#000000;"/>
<rect x="60" y="110" width="10" height="10" style="fill:#000000;"/>
<rect x="70" y="110" width="10" height="10" style="fill:#000000;"/>
<rect x="80" y="110" width="10" height="10" style="fill:#000000;"/>
<rect x="100" y="110" width="10" height="10" style="fill:#000000;"/>
<rect x="110" y="110" width="10" height="10" style="fill:#000000;"/>
<rect x="130" y="110" width="10" height="10" style="fill:#000000;"/>
<rect x="160" y="110" width="10" height="10" style="fill:#000000;"/>
<rect x="170" y="110" width="10" height="10" style="fill:#000000;"/>
<rect x="180" y="110" width="10" height="10" style="fill:#000000;"/>
<rect x="210" y="110" width="10" height="10" style="fill:#000000;"/>
<rect x="220" y="110" width="10" height="10" style="fill:#000000;"/>
<rect x="240" y="110" width="10" height="10" style="fill:#000000;"/>
<rect x="0" y="120" width="10" height="10" style="fill:#000000;"/>
<rect x="20" y="120" width="10" height="10" style="fill:#000000;"/>
<rect x="50" y="120" width="10" height="10" style="fill:#000000;"/>
<rect x="60" y="120" width="10" height="10" style="fill:#000000;"/>
<rect x="80" y="120" width="10" height="10" style="fill:#000000;"/>
<rect x="90" y="120" width="10" height="10" style="fill:#000000;"/>
<rect x="100" y="120" width="10" height="10" style="fill:#000000;"/>
<rect x="110" y="120" width="10" height="10" style="fill:#000000;"/>
<rect x="120" y="120" width="10" height="10" style="fill:#000000;"/>
<rect x="130" y="120" width="10" height="10" style="fill:#000000;"/>
<rect x="150" y="120" width="10" height="10" style="fill:#000000;"/>
<rect x="160" y="120" width="10" height="10" style="fill:#000000;"/>
<rect x="180" y="120" width="10" height="10" style="fill:#000000;"/>
<rect x="200" y="120" width="10" height="10" style="fill:#000000;"/>
<rect x="210" y="120" width="10" height="10" style="fill:#000000;"/>
<rect x="220" y="120" width="10" height="10" style="fill:#000000;"/>
<rect x="230" y="120" width="10" height="10" style="fill:#000000;"/>
<rect x="240" y="120" width="10" height="10" style="fill:#000000;"/>
<rect x="0" y="130" width="10" height="10" style="fill:#000000;"/>
<rect x="10" y="130" width="10" height="10" style="fill:#000000;"/>
<rect x="20" y="130" width="10" height="10" style="fill:#000000;"/>
<rect x="40" y="130" width="10" height="10" style="fill:#000000;"/>
<rect x="50" y="130" width="10" height="10" style="fill:#000000;"/>
<rect x="60" y="130" width="10" height="10" style="fill:#000000;"/>
<rect x="70" y="130" width="10" height="10" style="fill:#000000;"/>
<rect x="80" y="130" width="10" height="10" style="fill:#000000;"/>
<rect x="130" y="130" width="10" height="10" style="fill:#000000;"/>
<rect x="140" y="130" width="10" height="10" style="fill:#000000;"/>
<rect x="150" y="130" width="10" height="10" style="fill:#000000;"/>
<rect x="160" y="130" width="10" height="10" style="fill:#000000;"/>
<rect x="170" y="130" width="10" height="10" style="fill:#000000;"/>
<rect x="180" y="130" width="10" height="10" style="fill:#000000;"/>
<rect x="190" y="130" width="10" height="10" style="fill:#000000;"/>
<rect x="200" y="130" width="10" height="10" style="fill:#000000;"/>
<rect x="240" y="130" width="10" height="10" style="fill:#000000;"/>
<rect x="0" y="140" width="10" height="10" style="fill:#000000;"/>
<rect x="20" y="140" width="10" height="10" style="fill:#000000;"/>
<rect x="30" y="140" width="10" height="10" style="fill:#000000;"/>
<rect x="40" y="140" width="10" height="10" style="fill:#000000;"/>
<rect x="80" y="140" width="10" height="10" style="fill:#000000;"/>
<rect x="120" y="140" width="10" height="10" style="fill:#000000;"/>
<rect x="130" y="140" width="10" height="10" style="fill:#000000;"/>
<rect x="200" y="140" width="10" height="10" style="fill:#000000;"/>
<rect x="230" y="140" width="10" height="10" style="fill:#000000;"/>
<rect x="240" y="140" width="10" height="10" style="fill:#000000;"/>
<rect x="0" y="150" width="10" height="10" style="fill:#000000;"/>
<rect x="10" y="150" width="10" height="10" style="fill:#000000;"/>
<rect x="20" y="150" width="10" height="10" style="fill:#000000;"/>
<rect x="40" y="150" width="10" height="10" style="fill:#000000;"/>
<rect x="70" y="150" width="10" height="10" style="fill:#000000;"/>
<rect x="80" y="150" width="10" height="10" style="fill:#000000;"/>
<rect x="110" y="150" width="10" height="10" style="fill:#000000;"/>
<rect x="120" y="150" width="10" height="10" style="fill:#000000;"/>
<rect x="130" y="150" width="10" height="10" style="fill:#000000;"/>
<rect x="190" y="150" width="10" height="10" style="fill:#000000;"/>
<rect x="200" y="150" width="10" height="10" style="fill:#000000;"/>
<rect x="220" y="150" width="10" height="10" style="fill:#000000;"/>
<rect x="230" y="150" width="10" height="10" style="fill:#000000;"/>
<rect x="240" y="150" width="10" height="10" style="fill:#000000;"/>
<rect x="0" y="160" width="10" height="10" style="fill:#000000;"/>
<rect x="20" y="160" width="10" height="10" style="fill:#000000;"/>
<rect x="30" y="160" width="10" height="10" style="fill:#000000;"/>
<rect x="40" y="160" width="10" height="10" style="fill:#000000;"/>
<rect x="60" y="160" width="10" height="10" style="fill:#000000;"/>
<rect x="70" y="160" width="10" height="10" style="fill:#000000;"/>
<rect x="80" y="160" width="10" height="10" style="fill:#000000;"/>
<rect x="100" y="160" width="10" height="10" style="fill:#000000;"/>
<rect x="110" y="160" width="10" height="10" style="fill:#000000;"/>
<rect x="130" y="160" width="10" height="10" style="fill:#000000;"/>
<rect x="180" y="160" width="10" height="10" style="fill:#000000;"/>
<rect x="190" y="160" width="10" height="10" style="fill:#000000;"/>
<rect x="200" y="160" width="10" height="10" style="fill:#000000;"/>
<rect x="210" y="160" width="10" height="10" style="fill:#000000;"/>
<rect x="220" y="160" width="10" height="10" style="fill:#000000;"/>
<rect x="240" y="160" width="10" height="10" style="fill:#000000;"/>
<rect x="0" y="170" width="10" height="10" style="fill:#000000;"/>
<rect x="10" y="170" width="10" height="10" style="fill:#000000;"/>
<rect x="20" y="170" width="10" height="10" style="fill:#000000;"/>
<rect x="40" y="170" width="10" height="10" style="fill:#000000;"/>
<rect x="50" y="170" width="10" height="10" style="fill:#000000;"/>
<rect x="60" y="170" width="10" height="10" style="fill:#000000;"/>
<rect x="80" y="170" width="10" height="10" style="fill:#000000;"/>
<rect x="90" y="170" width="10" height="10" style="fill:#000000;"/>
<rect x="100" y="170" width="10" height="10" style="fill:#000000;"/>
<rect x="110" y="170" width="10" height="10" style="fill:#000000;"/>
<rect x="120" y="170" width="10" height="10" style="fill:#000000;"/>
<rect x="130" y="170" width="10" height="10" style="fill:#000000;"/>
<rect x="170" y="170" width="10" height="10" style="fill:#000000;"/>
<rect x="180" y="170" width="10" height="10" style="fill:#000000;"/>
<rect x="220" y="170" width="10" height="10" style="fill:#000000;"/>
<rect x="230" y="170" width="10" height="10" style="fill:#000000;"/>
<rect x="240" y="170" width="10" height="10" style="fill:#000000;"/>
<rect x="0" y="180" width="10" height="10" style="fill:#000000;"/>
<rect x="20" y="180" width="10" height="10" style="fill:#000000;"/>
<rect x="30" y="180" width="10" height="10" style="fill:#000000;"/>
<rect x="40" y="180" width="10" height="10" style="fill:#000000;"/>
<rect x="60" y="180" width="10" height="10" style="fill:#000000;"/>
<rect x="70" y="180" width="10" height="10" style="fill:#000000;"/>
<rect x="80" y="180" width="10" height="10" style="fill:#000000;"/>
<rect x="130" y="180" width="10" height="10" style="fill:#000000;"/>
<rect x="160" y="180" width="10" height="10" style="fill:#000000;"/>
<rect x="170" y="180" width="10" height="10" style="fill:#000000;"/>
<rect x="180" y="180" width="10" height="10" style="fill:#000000;"/>
<rect x="210" y="180" width="10" height="10" style="fill:#000000;"/>
<rect x="220" y="180" width="10" height="10" style="fill:#000000;"/>
<rect x="240" y="180" width="10" height="10" style="fill:#000000;"/>
<rect x="0" y="190" width="10" height="10" style="fill:#000000;"/>
<rect x="10" y="190" width="10" height="10" style="fill:#000000;"/>
<rect x="20" y="190" width="10" height="10" style="fill:#000000;"/>
<rect x="40" y="190" width="10" height="10" style="fill:#000000;"/>
<rect x="50" y="190" width="10" height="10" style="fill:#000000;"/>
<rect x="60" y="190" width="10" height="10" style="fill:#000000;"/>
<rect x="80" y="190" width="10" height="10" style="fill:#000000;"/>
<rect x="120" y="190" width="10" height="10" style="fill:#000000;"/>
<rect x="130" y="190" width="10" height="10" style="fill:#000000;"/>
<rect x="150" y="190" width="10" height="10" style="fill:#000000;"/>
<rect x="160" y="190" width="10" height="10" style="fill:#000000;"/>
<rect x="180" y="190" width="10" height="10" style="fill:#000000;"/>
<rect x="200" y="190" width="10" height="10" style="fill:#000000;"/>
<rect x="210" y="190" width="10" height="10" style="fill:#000000;"/>
<rect x="220" y="190" width="10" height="10" style="fill:#000000;"/>
<rect x="230" y="190" width="10" height="10" style="fill:#000000;"/>
<rect x="240" y="190" width="10" height="10" style="fill:#000000;"/>
<rect x="0" y="200" width="10" height="10" style="fill:#000000;"/>
<rect x="20" y="200" width="10" height="10" style="fill:#000000;"/>
<rect x="30" y="200" width="10" height="10" style="fill:#000000;"/>
<rect x="40" y="200" width="10" height="10" style="fill:#000000;"/>
<rect x="60" y="200" width="10" height="10" style="fill:#000000;"/>
<rect x="70" y="200" width="10" height="10" style="fill:#000000;"/>
<rect x="80" y="200" width="10" height="10" style="fill:#000000;"/>
<rect x="110" y="200" width="10" height="10" style="fill:#000000;"/>
<rect x="120" y="200" width="10" height="10" style="fill:#000000;"/>
<rect x="130" y="200" width="10" height="10" style="fill:#000000;"/>
<rect x="140" y="200" width="10" height="10" style="fill:#000000;"/>
<rect x="150" y="200" width="10" height="10" style="fill:#000000;"/>
<rect x="160" y="200" width="10" height="10" style="fill:#000000;"/>
<rect x="170" y="200" width="10" height="10" style="fill:#000000;"/>
<rect x="180" y="200" width="10" height="10" style="fill:#000000;"/>
<rect x="190" y="200" width="10" height="10" style="fill:#000000;"/>
<rect x="200" y="200" width="10" height="10" style="fill:#000000;"/>
<rect x="240" y="200" width="10" height="10" style="fill:#000000;"/>
<rect x="0" y="210" width="10" height="10" style="fill:#000000;"/>
<rect x="10" y="210" width="10" height="10" style="fill:#000000;"/>
<rect x="20" y="210" width="10" height="10" style="fill:#000000;"/>
<rect x="40" y="210" width="10" height="10" style="fill:#000000;"/>
<rect x="50" y="210" width="10" height="10" style="fill:#000000;"/>
<rect x="60" y="210" width="10" height="10" style="fill:#000000;"/>
<rect x="80" y="210" width="10" height="10" style="fill:#000000;"/>
<rect x="100" y="210" width="10" height="10" style="fill:#000000;"/>
<rect x="110" y="210" width="10" height="10" style="fill:#000000;"/>
<rect x="200" y="210" width="10" height="10" style="fill:#000000;"/>
<rect x="230" y="210" width="10" height="10" style="fill:#000000;"/>
<rect x="240" y="210" width="10" height="10" style="fill:#000000;"/>
<rect x="0" y="220" width="10" height="10" style="fill:#000000;"/>
<rect x="20" y="220" width="10" height="10" style="fill:#000000;"/>
<rect x="30" y="220" width="10" height="10" style="fill:#000000;"/>
<rect x="40" y="220" width="10" height="10" style="fill:#000000;"/>
<rect x="60" y="220" width="10" height="10" style="fill:#000000;"/>
<rect x="70" y="220" width="10" height="10" style="fill:#000000;"/>
<rect x="80" y="220" width="10" height="10" style="fill:#000000;"/>
<rect x="90" y="220" width="10" height="10" style="fill:#000000;"/>
<rect x="100" y="220" width="10" height="10" style="fill:#000000;"/>
<rect x="110" y="220" width="10" height="10" style="fill:#000000;"/>
<rect x="190" y="220" width="10" height="10" style="fill:#000000;"/>
<rect x="200" y="220" width="10" height="10" style="fill:#000000;"/>
<rect x="220" y="220" width="10" height="10" style="fill:#000000;"/>
<rect x="230" y="220" width="10" height="10" style="fill:#000000;"/>
<rect x="240" y="220" width="10" height="10" style="fill:#000000;"/>
<rect x="0" y="230" width="10" height="10" style="fill:#000000;"/>
<rect x="10" y="230" width="10" height="10" style="fill:#000000;"/>
<rect x="20" y="230" width="10" height="10" style="fill:#000000;"/>
<rect x="40" y="230" width="10" height="10" style="fill:#000000;"/>
<rect x="50" y="230" width="10" height="10" style="fill:#000000;"/>
<rect x="60" y="230" width="10" height="10" style="fill:#000000;"/>
<rect x="110" y="230" width="10" height="10" style="fill:#000000;"/>
<rect x="180" y="230" width="10" height="10" style="fill:#000000;"/>
<rect x="190" y="230" width="10" height="10" style="fill:#000000;"/>
<rect x="200" y="230" width="10" height="10" style="fill:#000000;"/>
<rect x="210" y="230" width="10" height="10" style="fill:#000000;"/>
<rect x="220" y="230" width="10" height="10" style="fill:#000000;"/>
<rect x="240" y="230" width="10" height="10" style="fill:#000000;"/>
<rect x="0" y="240" width="10" height="10" style="fill:#000000;"/>
<rect x="20" y="240" width="10" height="10" style="fill:#000000;"/>
<rect x="30" y="240" width="10" height="10" style="fill:#000000;"/>
<rect x="40" y="240" width="10" height="10" style="fill:#000000;"/>
<rect x="60" y="240" width="10" height="10" style="fill:#000000;"/>
<rect x="100" y="240" width="10" height="10" style="fill:#000000;"/>
<rect x="110" y="240" width="10" height="10" style="fill:#000000;"/>
<rect x="170" y="240" width="10" height="10" style="fill:#000000;"/>
<rect x="180" y="240" width="10" height="10" style="fill:#000000;"/>
<rect x="220" y="240" width="10" height="10" style="fill:#000000;"/>
<rect x="230" y="240" width="10" height="10" style="fill:#000000;"/>
<rect x="240" y="240" width="10" height="10" style="fill:#000000;"/>
<rect x="0" y="250" width="10" height="10" style="fill:#000000;"/>
<rect x="10" y="250" width="10" height="10" style="fill:#000000;"/>
<rect x="20" y="250" width="10" height="10" style="fill:#000000;"/>
<rect x="40" y="250" width="10" height="10" style="fill:#000000;"/>
<rect x="50" y="250" width="10" height="10" style="fill:#000000;"/>
<rect x="60" y="250" width="10" height="10" style="fill:#000000;"/>
<rect x="90" y="250" width="10" height="10" style="fill:#000000;"/>
<rect x="100" y="250" width="10" height="10" style="fill:#000000;"/>
<rect x="110" y="250" width="10" height="10" style="fill:#000000;"/>
<rect x="160" y="250" width="10" height="10" style="fill:#000000;"/>
<rect x="170" y="250" width="10" height="10" style="fill:#000000;"/>
<rect x="180" y="250" width="10" height="10" style="fill:#000000;"/>
<rect x="210" y="250" width="10" height="10" style="fill:#000000;"/>
<rect x="220" y="250" width="10" height="10" style="fill:#000000;"/>
<rect x="240" y="250" width="10" height="10" style="fill:#000000;"/>
</svg>
